G04*
G04 #@! TF.GenerationSoftware,Altium Limited,Altium Designer,20.0.2 (26)*
G04*
G04 Layer_Color=32896*
%FSLAX25Y25*%
%MOIN*%
G70*
G01*
G75*
%ADD10C,0.00787*%
%ADD11C,0.00500*%
%ADD12C,0.01000*%
%ADD44C,0.01181*%
G36*
X278937Y393208D02*
X280611D01*
Y398130D01*
X278937D01*
Y393208D01*
D02*
G37*
D10*
X282087Y352953D02*
G03*
X282087Y352953I-394J0D01*
G01*
X307087Y307874D02*
G03*
X307087Y307874I-394J0D01*
G01*
X249606Y413386D02*
G03*
X249606Y413386I-394J0D01*
G01*
X214875Y294911D02*
G03*
X214875Y294911I-394J0D01*
G01*
D11*
X270394Y322362D02*
G03*
X270394Y322362I-433J0D01*
G01*
X293425Y450709D02*
X294764D01*
X293425Y445354D02*
X294764D01*
X307205D02*
X308543D01*
X307205Y450709D02*
X308543D01*
X324724Y409961D02*
Y411299D01*
X319370Y409961D02*
Y411299D01*
Y423740D02*
Y425079D01*
X324724Y423740D02*
Y425079D01*
X256634Y342598D02*
X257972D01*
X256634Y347953D02*
X257972D01*
X256634Y350472D02*
X257972D01*
X256634Y355827D02*
X257972D01*
X265669Y363504D02*
Y364843D01*
X260315Y363504D02*
Y364843D01*
X252441Y363504D02*
Y364843D01*
X257795Y363504D02*
Y364843D01*
X270276Y343504D02*
Y346791D01*
Y351634D02*
Y354921D01*
Y343504D02*
X273352D01*
X270276Y354921D02*
X273352D01*
X319370Y437303D02*
Y438642D01*
X324724Y437303D02*
Y438642D01*
X301476Y358976D02*
X302815D01*
X301476Y353622D02*
X302815D01*
X288976Y312598D02*
X298740D01*
X288976D02*
Y348032D01*
X298740D01*
X314646D02*
X324409D01*
Y312598D02*
Y348032D01*
X314646Y312598D02*
X324409D01*
X252953Y417402D02*
Y418031D01*
X262795Y417402D02*
Y418031D01*
X259646Y433150D02*
Y436142D01*
X253740Y433150D02*
Y436142D01*
X188189Y328090D02*
X188996D01*
X213366D02*
X214173D01*
X188189Y304075D02*
Y328090D01*
Y304075D02*
X214173D01*
Y328090D01*
X224488Y319921D02*
Y323819D01*
X231181D01*
X279016Y319843D02*
Y323819D01*
X271850D02*
X279016D01*
X224390Y301772D02*
Y311102D01*
X279016Y301811D02*
Y311102D01*
X224390Y301772D02*
X279016D01*
D12*
X288189Y450787D02*
X286024D01*
Y449705D01*
X286385Y449344D01*
X287107D01*
X287467Y449705D01*
Y450787D01*
Y450066D02*
X288189Y449344D01*
Y448623D02*
Y447901D01*
Y448262D01*
X286024D01*
X286385Y448623D01*
X286024Y445376D02*
X286385Y446097D01*
X287107Y446819D01*
X287828D01*
X288189Y446458D01*
Y445737D01*
X287828Y445376D01*
X287467D01*
X287107Y445737D01*
Y446819D01*
X249016Y420472D02*
X249377D01*
X250099Y419751D01*
X249377Y419029D01*
X249016D01*
X250099Y419751D02*
X251181D01*
Y416865D02*
Y418308D01*
X249738Y416865D01*
X249377D01*
X249016Y417226D01*
Y417947D01*
X249377Y418308D01*
X250198Y436221D02*
X250558D01*
X251280Y435499D01*
X250558Y434777D01*
X250198D01*
X251280Y435499D02*
X252362D01*
Y434056D02*
Y433334D01*
Y433695D01*
X250198D01*
X250558Y434056D01*
X199606Y290749D02*
Y292553D01*
X199967Y292913D01*
X200689D01*
X201049Y292553D01*
Y290749D01*
X201771Y291109D02*
X202132Y290749D01*
X202853D01*
X203214Y291109D01*
Y291470D01*
X202853Y291831D01*
X202492D01*
X202853D01*
X203214Y292192D01*
Y292553D01*
X202853Y292913D01*
X202132D01*
X201771Y292553D01*
X224410Y333661D02*
Y331857D01*
X224049Y331496D01*
X223327D01*
X222966Y331857D01*
Y333661D01*
X220802Y331496D02*
X222245D01*
X220802Y332939D01*
Y333300D01*
X221163Y333661D01*
X221884D01*
X222245Y333300D01*
X295276Y358661D02*
X293111D01*
Y357579D01*
X293472Y357218D01*
X294193D01*
X294554Y357579D01*
Y358661D01*
Y357940D02*
X295276Y357218D01*
Y356497D02*
Y355775D01*
Y356136D01*
X293111D01*
X293472Y356497D01*
X294915Y354693D02*
X295276Y354332D01*
Y353611D01*
X294915Y353250D01*
X293472D01*
X293111Y353611D01*
Y354332D01*
X293472Y354693D01*
X293832D01*
X294193Y354332D01*
Y353250D01*
X265354Y370866D02*
Y373031D01*
X264272D01*
X263911Y372670D01*
Y371949D01*
X264272Y371588D01*
X265354D01*
X264633D02*
X263911Y370866D01*
X263190D02*
X262468D01*
X262829D01*
Y373031D01*
X263190Y372670D01*
X261386D02*
X261025Y373031D01*
X260303D01*
X259943Y372670D01*
Y372309D01*
X260303Y371949D01*
X259943Y371588D01*
Y371227D01*
X260303Y370866D01*
X261025D01*
X261386Y371227D01*
Y371588D01*
X261025Y371949D01*
X261386Y372309D01*
Y372670D01*
X261025Y371949D02*
X260303D01*
X257480Y371083D02*
Y373247D01*
X256398D01*
X256037Y372887D01*
Y372165D01*
X256398Y371804D01*
X257480D01*
X256759D02*
X256037Y371083D01*
X255316D02*
X254594D01*
X254955D01*
Y373247D01*
X255316Y372887D01*
X252069Y373247D02*
X253512D01*
Y372165D01*
X252790Y372526D01*
X252430D01*
X252069Y372165D01*
Y371444D01*
X252430Y371083D01*
X253151D01*
X253512Y371444D01*
X314567Y446063D02*
X316732D01*
Y447145D01*
X316371Y447506D01*
X315649D01*
X315288Y447145D01*
Y446063D01*
Y446784D02*
X314567Y447506D01*
Y448228D02*
Y448949D01*
Y448588D01*
X316732D01*
X316371Y448228D01*
X314567Y451475D02*
Y450032D01*
X316010Y451475D01*
X316371D01*
X316732Y451114D01*
Y450392D01*
X316371Y450032D01*
X250000Y355512D02*
X247835D01*
Y354430D01*
X248196Y354069D01*
X248918D01*
X249278Y354430D01*
Y355512D01*
Y354790D02*
X250000Y354069D01*
Y353347D02*
Y352626D01*
Y352986D01*
X247835D01*
X248196Y353347D01*
X250000Y351543D02*
Y350822D01*
Y351183D01*
X247835D01*
X248196Y351543D01*
X250610Y346850D02*
X248446D01*
Y345768D01*
X248806Y345407D01*
X249528D01*
X249889Y345768D01*
Y346850D01*
Y346129D02*
X250610Y345407D01*
X250249Y344686D02*
X250610Y344325D01*
Y343603D01*
X250249Y343243D01*
X248806D01*
X248446Y343603D01*
Y344325D01*
X248806Y344686D01*
X249167D01*
X249528Y344325D01*
Y343243D01*
X318504Y412205D02*
X316339D01*
Y411122D01*
X316700Y410762D01*
X317422D01*
X317782Y411122D01*
Y412205D01*
Y411483D02*
X318504Y410762D01*
X316339Y410040D02*
Y408597D01*
X316700D01*
X318143Y410040D01*
X318504D01*
X318110Y425591D02*
X315946D01*
Y424508D01*
X316306Y424148D01*
X317028D01*
X317389Y424508D01*
Y425591D01*
Y424869D02*
X318110Y424148D01*
X315946Y421983D02*
Y423426D01*
X317028D01*
X316667Y422704D01*
Y422344D01*
X317028Y421983D01*
X317750D01*
X318110Y422344D01*
Y423065D01*
X317750Y423426D01*
X323622Y444882D02*
Y447047D01*
X322540D01*
X322179Y446686D01*
Y445964D01*
X322540Y445603D01*
X323622D01*
X322901D02*
X322179Y444882D01*
X321457D02*
X320736D01*
X321097D01*
Y447047D01*
X321457Y446686D01*
X279888Y349475D02*
X281331D01*
X281692Y349114D01*
Y348392D01*
X281331Y348031D01*
X279888D01*
X279528Y348392D01*
Y349114D01*
X280249Y348753D02*
X279528Y349475D01*
Y349114D02*
X279888Y349475D01*
X279528Y350196D02*
Y350918D01*
Y350557D01*
X281692D01*
X281331Y350196D01*
X182809Y344291D02*
X183530D01*
X183170D01*
Y342487D01*
X183530Y342126D01*
X183891D01*
X184252Y342487D01*
X180644Y342126D02*
X182087D01*
X180644Y343569D01*
Y343930D01*
X181005Y344291D01*
X181727D01*
X182087Y343930D01*
X269489Y396850D02*
X271654D01*
Y395768D01*
X271293Y395407D01*
X269850D01*
X269489Y395768D01*
Y396850D01*
X271654Y394686D02*
Y393964D01*
Y394325D01*
X269489D01*
X269850Y394686D01*
X272573Y374048D02*
X272933Y374409D01*
X273655D01*
X274016Y374048D01*
Y372605D01*
X273655Y372244D01*
X272933D01*
X272573Y372605D01*
X271851Y372244D02*
X271130D01*
X271490D01*
Y374409D01*
X271851Y374048D01*
X268604Y374409D02*
X269326Y374048D01*
X270047Y373326D01*
Y372605D01*
X269686Y372244D01*
X268965D01*
X268604Y372605D01*
Y372966D01*
X268965Y373326D01*
X270047D01*
X232119Y344750D02*
X232480Y344389D01*
Y343668D01*
X232119Y343307D01*
X230676D01*
X230315Y343668D01*
Y344389D01*
X230676Y344750D01*
X230315Y345472D02*
Y346193D01*
Y345832D01*
X232480D01*
X232119Y345472D01*
X232480Y348719D02*
Y347276D01*
X231397D01*
X231758Y347997D01*
Y348358D01*
X231397Y348719D01*
X230676D01*
X230315Y348358D01*
Y347636D01*
X230676Y347276D01*
X306168Y272999D02*
X305807Y272639D01*
X305085D01*
X304724Y272999D01*
Y274442D01*
X305085Y274803D01*
X305807D01*
X306168Y274442D01*
X306889Y274803D02*
X307611D01*
X307250D01*
Y272639D01*
X306889Y272999D01*
X309775Y274803D02*
Y272639D01*
X308693Y273721D01*
X310136D01*
X293045Y274639D02*
X293406Y274999D01*
X294127D01*
X294488Y274639D01*
Y273195D01*
X294127Y272835D01*
X293406D01*
X293045Y273195D01*
X292323Y272835D02*
X291602D01*
X291963D01*
Y274999D01*
X292323Y274639D01*
X290520D02*
X290159Y274999D01*
X289437D01*
X289077Y274639D01*
Y274278D01*
X289437Y273917D01*
X289798D01*
X289437D01*
X289077Y273556D01*
Y273195D01*
X289437Y272835D01*
X290159D01*
X290520Y273195D01*
X306431Y301410D02*
X306792Y301771D01*
X307513D01*
X307874Y301410D01*
Y299967D01*
X307513Y299606D01*
X306792D01*
X306431Y299967D01*
X305709Y299606D02*
X304988D01*
X305349D01*
Y301771D01*
X305709Y301410D01*
X302462Y299606D02*
X303906D01*
X302462Y301049D01*
Y301410D01*
X302823Y301771D01*
X303545D01*
X303906Y301410D01*
X296982Y301213D02*
X297343Y301574D01*
X298064D01*
X298425Y301213D01*
Y299770D01*
X298064Y299410D01*
X297343D01*
X296982Y299770D01*
X296261Y299410D02*
X295539D01*
X295900D01*
Y301574D01*
X296261Y301213D01*
X294457Y299410D02*
X293735D01*
X294096D01*
Y301574D01*
X294457Y301213D01*
X289108D02*
X289469Y301574D01*
X290190D01*
X290551Y301213D01*
Y299770D01*
X290190Y299410D01*
X289469D01*
X289108Y299770D01*
X288387Y299410D02*
X287665D01*
X288026D01*
Y301574D01*
X288387Y301213D01*
X286583D02*
X286222Y301574D01*
X285500D01*
X285140Y301213D01*
Y299770D01*
X285500Y299410D01*
X286222D01*
X286583Y299770D01*
Y301213D01*
X205250Y278575D02*
X205611Y278936D01*
X206332D01*
X206693Y278575D01*
Y277132D01*
X206332Y276772D01*
X205611D01*
X205250Y277132D01*
X204528D02*
X204168Y276772D01*
X203446D01*
X203085Y277132D01*
Y278575D01*
X203446Y278936D01*
X204168D01*
X204528Y278575D01*
Y278215D01*
X204168Y277854D01*
X203085D01*
X183103Y282939D02*
X183464Y282578D01*
Y281857D01*
X183103Y281496D01*
X181660D01*
X181299Y281857D01*
Y282578D01*
X181660Y282939D01*
X183464Y285104D02*
X183103Y284382D01*
X182381Y283661D01*
X181660D01*
X181299Y284021D01*
Y284743D01*
X181660Y285104D01*
X182021D01*
X182381Y284743D01*
Y283661D01*
X279659Y374048D02*
X280020Y374409D01*
X280742D01*
X281102Y374048D01*
Y372605D01*
X280742Y372244D01*
X280020D01*
X279659Y372605D01*
X277495Y374409D02*
X278938D01*
Y373326D01*
X278216Y373687D01*
X277855D01*
X277495Y373326D01*
Y372605D01*
X277855Y372244D01*
X278577D01*
X278938Y372605D01*
X263648Y392487D02*
X263287Y392127D01*
X262565D01*
X262205Y392487D01*
Y393931D01*
X262565Y394291D01*
X263287D01*
X263648Y393931D01*
X265452Y394291D02*
Y392127D01*
X264369Y393209D01*
X265812D01*
X248590Y405250D02*
X248229Y405611D01*
Y406332D01*
X248590Y406693D01*
X250033D01*
X250394Y406332D01*
Y405611D01*
X250033Y405250D01*
X248590Y404528D02*
X248229Y404168D01*
Y403446D01*
X248590Y403085D01*
X248951D01*
X249311Y403446D01*
Y403807D01*
Y403446D01*
X249672Y403085D01*
X250033D01*
X250394Y403446D01*
Y404168D01*
X250033Y404528D01*
X269160Y441503D02*
X268799Y441142D01*
X268077D01*
X267717Y441503D01*
Y442946D01*
X268077Y443307D01*
X268799D01*
X269160Y442946D01*
X271324Y443307D02*
X269881D01*
X271324Y441864D01*
Y441503D01*
X270964Y441142D01*
X270242D01*
X269881Y441503D01*
X250952Y448163D02*
X250591Y448524D01*
Y449246D01*
X250952Y449606D01*
X252395D01*
X252756Y449246D01*
Y448524D01*
X252395Y448163D01*
X252756Y447442D02*
Y446720D01*
Y447081D01*
X250591D01*
X250952Y447442D01*
X291339Y351377D02*
Y349213D01*
X290256D01*
X289896Y349573D01*
Y349934D01*
X290256Y350295D01*
X291339D01*
X290256D01*
X289896Y350656D01*
Y351016D01*
X290256Y351377D01*
X291339D01*
X289174Y349213D02*
X288452D01*
X288813D01*
Y351377D01*
X289174Y351016D01*
D44*
X182874Y327433D02*
G03*
X182874Y327433I-197J0D01*
G01*
M02*
