G04*
G04 #@! TF.GenerationSoftware,Altium Limited,Altium Designer,20.0.2 (26)*
G04*
G04 Layer_Color=2752767*
%FSLAX25Y25*%
%MOIN*%
G70*
G01*
G75*
%ADD73C,0.00200*%
%ADD74C,0.00267*%
D73*
X291169Y395657D02*
Y397257D01*
X292769D01*
Y395657D01*
X291169D01*
X291969Y367310D02*
X291169Y368910D01*
X292769D01*
X291969Y367310D01*
X300288Y303602D02*
X300688Y304002D01*
X301087D01*
X300688Y304402D01*
X301087Y304802D01*
X300688D01*
X300288Y305202D01*
X299887Y304802D01*
X299487D01*
X299887Y304402D01*
X299487Y304002D01*
X299887D01*
X300288Y303602D01*
X296900Y303500D02*
X297300Y303900D01*
X297700D01*
X297300Y304300D01*
X297700Y304700D01*
X297300D01*
X296900Y305100D01*
X296500Y304700D01*
X296100D01*
X296500Y304300D01*
X296100Y303900D01*
X296500D01*
X296900Y303500D01*
X295472Y315047D02*
X295872Y315446D01*
X296272D01*
X295872Y315846D01*
X296272Y316247D01*
X295872D01*
X295472Y316647D01*
X295072Y316247D01*
X294672D01*
X295072Y315846D01*
X294672Y315446D01*
X295072D01*
X295472Y315047D01*
X296949Y320263D02*
X297349Y320663D01*
X297749D01*
X297349Y321063D01*
X297749Y321463D01*
X297349D01*
X296949Y321863D01*
X296549Y321463D01*
X296149D01*
X296549Y321063D01*
X296149Y320663D01*
X296549D01*
X296949Y320263D01*
X312400Y373300D02*
X312800Y373700D01*
X313200D01*
X312800Y374100D01*
X313200Y374500D01*
X312800D01*
X312400Y374900D01*
X312000Y374500D01*
X311600D01*
X312000Y374100D01*
X311600Y373700D01*
X312000D01*
X312400Y373300D01*
X283500Y442500D02*
X283900Y442900D01*
X284300D01*
X283900Y443300D01*
X284300Y443700D01*
X283900D01*
X283500Y444100D01*
X283100Y443700D01*
X282700D01*
X283100Y443300D01*
X282700Y442900D01*
X283100D01*
X283500Y442500D01*
X285173Y445657D02*
X285573Y446057D01*
X285973D01*
X285573Y446457D01*
X285973Y446857D01*
X285573D01*
X285173Y447257D01*
X284773Y446857D01*
X284373D01*
X284773Y446457D01*
X284373Y446057D01*
X284773D01*
X285173Y445657D01*
X293100Y385400D02*
X293500Y385800D01*
X293900D01*
X293500Y386200D01*
X293900Y386600D01*
X293500D01*
X293100Y387000D01*
X292700Y386600D01*
X292300D01*
X292700Y386200D01*
X292300Y385800D01*
X292700D01*
X293100Y385400D01*
X301100Y387300D02*
X301500Y387700D01*
X301900D01*
X301500Y388100D01*
X301900Y388500D01*
X301500D01*
X301100Y388900D01*
X300700Y388500D01*
X300300D01*
X300700Y388100D01*
X300300Y387700D01*
X300700D01*
X301100Y387300D01*
X276772Y399200D02*
X277172Y399600D01*
X277572D01*
X277172Y400000D01*
X277572Y400400D01*
X277172D01*
X276772Y400800D01*
X276372Y400400D01*
X275972D01*
X276372Y400000D01*
X275972Y399600D01*
X276372D01*
X276772Y399200D01*
X286971Y440895D02*
X287371Y441295D01*
X287771D01*
X287371Y441695D01*
X287771Y442095D01*
X287371D01*
X286971Y442495D01*
X286571Y442095D01*
X286171D01*
X286571Y441695D01*
X286171Y441295D01*
X286571D01*
X286971Y440895D01*
X192913Y345043D02*
X193313Y345443D01*
X193713D01*
X193313Y345843D01*
X193713Y346243D01*
X193313D01*
X192913Y346643D01*
X192513Y346243D01*
X192113D01*
X192513Y345843D01*
X192113Y345443D01*
X192513D01*
X192913Y345043D01*
X293000Y348600D02*
X293400Y349000D01*
X293800D01*
X293400Y349400D01*
X293800Y349800D01*
X293400D01*
X293000Y350200D01*
X292600Y349800D01*
X292200D01*
X292600Y349400D01*
X292200Y349000D01*
X292600D01*
X293000Y348600D01*
X305600Y360100D02*
X306000Y360500D01*
X306400D01*
X306000Y360900D01*
X306400Y361300D01*
X306000D01*
X305600Y361700D01*
X305200Y361300D01*
X304800D01*
X305200Y360900D01*
X304800Y360500D01*
X305200D01*
X305600Y360100D01*
X233600Y358255D02*
X234000Y358655D01*
X234400D01*
X234000Y359055D01*
X234400Y359455D01*
X234000D01*
X233600Y359855D01*
X233200Y359455D01*
X232800D01*
X233200Y359055D01*
X232800Y358655D01*
X233200D01*
X233600Y358255D01*
X272500Y430800D02*
X272900Y431200D01*
X273300D01*
X272900Y431600D01*
X273300Y432000D01*
X272900D01*
X272500Y432400D01*
X272100Y432000D01*
X271700D01*
X272100Y431600D01*
X271700Y431200D01*
X272100D01*
X272500Y430800D01*
X281100Y374000D02*
X281500Y374400D01*
X281900D01*
X281500Y374800D01*
X281900Y375200D01*
X281500D01*
X281100Y375600D01*
X280700Y375200D01*
X280300D01*
X280700Y374800D01*
X280300Y374400D01*
X280700D01*
X281100Y374000D01*
X270675Y422200D02*
X271075Y422600D01*
X271475D01*
X271075Y423000D01*
X271475Y423400D01*
X271075D01*
X270675Y423800D01*
X270275Y423400D01*
X269875D01*
X270275Y423000D01*
X269875Y422600D01*
X270275D01*
X270675Y422200D01*
X273500Y279200D02*
X273900Y279600D01*
X274300D01*
X273900Y280000D01*
X274300Y280400D01*
X273900D01*
X273500Y280800D01*
X273100Y280400D01*
X272700D01*
X273100Y280000D01*
X272700Y279600D01*
X273100D01*
X273500Y279200D01*
X235000Y302600D02*
X235400Y303000D01*
X235800D01*
X235400Y303400D01*
X235800Y303800D01*
X235400D01*
X235000Y304200D01*
X234600Y303800D01*
X234200D01*
X234600Y303400D01*
X234200Y303000D01*
X234600D01*
X235000Y302600D01*
X241600Y297054D02*
X242000Y297454D01*
X242400D01*
X242000Y297854D01*
X242400Y298254D01*
X242000D01*
X241600Y298654D01*
X241200Y298254D01*
X240800D01*
X241200Y297854D01*
X240800Y297454D01*
X241200D01*
X241600Y297054D01*
X214900Y289400D02*
X215300Y289800D01*
X215700D01*
X215300Y290200D01*
X215700Y290600D01*
X215300D01*
X214900Y291000D01*
X214500Y290600D01*
X214100D01*
X214500Y290200D01*
X214100Y289800D01*
X214500D01*
X214900Y289400D01*
X292700Y376500D02*
X293100Y376900D01*
X293500D01*
X293100Y377300D01*
X293500Y377700D01*
X293100D01*
X292700Y378100D01*
X292300Y377700D01*
X291900D01*
X292300Y377300D01*
X291900Y376900D01*
X292300D01*
X292700Y376500D01*
X240900Y430900D02*
X241300Y431300D01*
X241700D01*
X241300Y431700D01*
X241700Y432100D01*
X241300D01*
X240900Y432500D01*
X240500Y432100D01*
X240100D01*
X240500Y431700D01*
X240100Y431300D01*
X240500D01*
X240900Y430900D01*
Y439000D02*
X241300Y439400D01*
X241700D01*
X241300Y439800D01*
X241700Y440200D01*
X241300D01*
X240900Y440600D01*
X240500Y440200D01*
X240100D01*
X240500Y439800D01*
X240100Y439400D01*
X240500D01*
X240900Y439000D01*
X317800Y429700D02*
X318200Y430100D01*
X318600D01*
X318200Y430500D01*
X318600Y430900D01*
X318200D01*
X317800Y431300D01*
X317400Y430900D01*
X317000D01*
X317400Y430500D01*
X317000Y430100D01*
X317400D01*
X317800Y429700D01*
X319000Y388200D02*
X319400Y388600D01*
X319800D01*
X319400Y389000D01*
X319800Y389400D01*
X319400D01*
X319000Y389800D01*
X318600Y389400D01*
X318200D01*
X318600Y389000D01*
X318200Y388600D01*
X318600D01*
X319000Y388200D01*
X316359Y355800D02*
X316759Y356200D01*
X317159D01*
X316759Y356600D01*
X317159Y357000D01*
X316759D01*
X316359Y357400D01*
X315959Y357000D01*
X315559D01*
X315959Y356600D01*
X315559Y356200D01*
X315959D01*
X316359Y355800D01*
X319100Y345100D02*
X319500Y345500D01*
X319900D01*
X319500Y345900D01*
X319900Y346300D01*
X319500D01*
X319100Y346700D01*
X318700Y346300D01*
X318300D01*
X318700Y345900D01*
X318300Y345500D01*
X318700D01*
X319100Y345100D01*
X315000Y336300D02*
X315400Y336700D01*
X315800D01*
X315400Y337100D01*
X315800Y337500D01*
X315400D01*
X315000Y337900D01*
X314600Y337500D01*
X314200D01*
X314600Y337100D01*
X314200Y336700D01*
X314600D01*
X315000Y336300D01*
X238603Y306100D02*
X239003Y306500D01*
X239403D01*
X239003Y306900D01*
X239403Y307300D01*
X239003D01*
X238603Y307700D01*
X238203Y307300D01*
X237803D01*
X238203Y306900D01*
X237803Y306500D01*
X238203D01*
X238603Y306100D01*
X278000Y331700D02*
X278400Y332100D01*
X278800D01*
X278400Y332500D01*
X278800Y332900D01*
X278400D01*
X278000Y333300D01*
X277600Y332900D01*
X277200D01*
X277600Y332500D01*
X277200Y332100D01*
X277600D01*
X278000Y331700D01*
X310600Y435900D02*
X311000Y436300D01*
X311400D01*
X311000Y436700D01*
X311400Y437100D01*
X311000D01*
X310600Y437500D01*
X310200Y437100D01*
X309800D01*
X310200Y436700D01*
X309800Y436300D01*
X310200D01*
X310600Y435900D01*
X317689Y443911D02*
X318089Y444311D01*
X318489D01*
X318089Y444711D01*
X318489Y445111D01*
X318089D01*
X317689Y445511D01*
X317289Y445111D01*
X316889D01*
X317289Y444711D01*
X316889Y444311D01*
X317289D01*
X317689Y443911D01*
X276000Y340400D02*
X276400Y340800D01*
X276800D01*
X276400Y341200D01*
X276800Y341600D01*
X276400D01*
X276000Y342000D01*
X275600Y341600D01*
X275200D01*
X275600Y341200D01*
X275200Y340800D01*
X275600D01*
X276000Y340400D01*
X275300Y320600D02*
X275700Y321000D01*
X276100D01*
X275700Y321400D01*
X276100Y321800D01*
X275700D01*
X275300Y322200D01*
X274900Y321800D01*
X274500D01*
X274900Y321400D01*
X274500Y321000D01*
X274900D01*
X275300Y320600D01*
X260205Y309797D02*
X260605Y310197D01*
X261005D01*
X260605Y310597D01*
X261005Y310997D01*
X260605D01*
X260205Y311397D01*
X259805Y310997D01*
X259405D01*
X259805Y310597D01*
X259405Y310197D01*
X259805D01*
X260205Y309797D01*
X242600Y313400D02*
X243000Y313800D01*
X243400D01*
X243000Y314200D01*
X243400Y314600D01*
X243000D01*
X242600Y315000D01*
X242200Y314600D01*
X241800D01*
X242200Y314200D01*
X241800Y313800D01*
X242200D01*
X242600Y313400D01*
X249145Y314345D02*
X249545Y314745D01*
X249945D01*
X249545Y315145D01*
X249945Y315545D01*
X249545D01*
X249145Y315945D01*
X248745Y315545D01*
X248345D01*
X248745Y315145D01*
X248345Y314745D01*
X248745D01*
X249145Y314345D01*
X255400Y313700D02*
X255800Y314100D01*
X256200D01*
X255800Y314500D01*
X256200Y314900D01*
X255800D01*
X255400Y315300D01*
X255000Y314900D01*
X254600D01*
X255000Y314500D01*
X254600Y314100D01*
X255000D01*
X255400Y313700D01*
X265000Y391900D02*
X265400Y392300D01*
X265800D01*
X265400Y392700D01*
X265800Y393100D01*
X265400D01*
X265000Y393500D01*
X264600Y393100D01*
X264200D01*
X264600Y392700D01*
X264200Y392300D01*
X264600D01*
X265000Y391900D01*
X290000Y403500D02*
X290400Y403900D01*
X290800D01*
X290400Y404300D01*
X290800Y404700D01*
X290400D01*
X290000Y405100D01*
X289600Y404700D01*
X289200D01*
X289600Y404300D01*
X289200Y403900D01*
X289600D01*
X290000Y403500D01*
X233200Y420600D02*
X233600Y421000D01*
X234000D01*
X233600Y421400D01*
X234000Y421800D01*
X233600D01*
X233200Y422200D01*
X232800Y421800D01*
X232400D01*
X232800Y421400D01*
X232400Y421000D01*
X232800D01*
X233200Y420600D01*
Y379600D02*
X233600Y380000D01*
X234000D01*
X233600Y380400D01*
X234000Y380800D01*
X233600D01*
X233200Y381200D01*
X232800Y380800D01*
X232400D01*
X232800Y380400D01*
X232400Y380000D01*
X232800D01*
X233200Y379600D01*
X269300Y373900D02*
X269700Y374300D01*
X270100D01*
X269700Y374700D01*
X270100Y375100D01*
X269700D01*
X269300Y375500D01*
X268900Y375100D01*
X268500D01*
X268900Y374700D01*
X268500Y374300D01*
X268900D01*
X269300Y373900D01*
X264291Y333591D02*
X264691Y333991D01*
X265091D01*
X264691Y334391D01*
X265091Y334791D01*
X264691D01*
X264291Y335191D01*
X263891Y334791D01*
X263491D01*
X263891Y334391D01*
X263491Y333991D01*
X263891D01*
X264291Y333591D01*
X227500Y279500D02*
X227900Y279900D01*
X228300D01*
X227900Y280300D01*
X228300Y280700D01*
X227900D01*
X227500Y281100D01*
X227100Y280700D01*
X226700D01*
X227100Y280300D01*
X226700Y279900D01*
X227100D01*
X227500Y279500D01*
X286900Y362300D02*
X287300Y362700D01*
X287700D01*
X287300Y363100D01*
X287700Y363500D01*
X287300D01*
X286900Y363900D01*
X286500Y363500D01*
X286100D01*
X286500Y363100D01*
X286100Y362700D01*
X286500D01*
X286900Y362300D01*
X246900Y276900D02*
X247300Y277300D01*
X247700D01*
X247300Y277700D01*
X247700Y278100D01*
X247300D01*
X246900Y278500D01*
X246500Y278100D01*
X246100D01*
X246500Y277700D01*
X246100Y277300D01*
X246500D01*
X246900Y276900D01*
X231600Y279600D02*
X232000Y280000D01*
X232400D01*
X232000Y280400D01*
X232400Y280800D01*
X232000D01*
X231600Y281200D01*
X231200Y280800D01*
X230800D01*
X231200Y280400D01*
X230800Y280000D01*
X231200D01*
X231600Y279600D01*
X251000Y273600D02*
X251400Y274000D01*
X251800D01*
X251400Y274400D01*
X251800Y274800D01*
X251400D01*
X251000Y275200D01*
X250600Y274800D01*
X250200D01*
X250600Y274400D01*
X250200Y274000D01*
X250600D01*
X251000Y273600D01*
Y294100D02*
X251400Y294500D01*
X251800D01*
X251400Y294900D01*
X251800Y295300D01*
X251400D01*
X251000Y295700D01*
X250600Y295300D01*
X250200D01*
X250600Y294900D01*
X250200Y294500D01*
X250600D01*
X251000Y294100D01*
X303500Y440500D02*
X303900Y440900D01*
X304300D01*
X303900Y441300D01*
X304300Y441700D01*
X303900D01*
X303500Y442100D01*
X303100Y441700D01*
X302700D01*
X303100Y441300D01*
X302700Y440900D01*
X303100D01*
X303500Y440500D01*
X306500Y386100D02*
X306900Y386500D01*
X307300D01*
X306900Y386900D01*
X307300Y387300D01*
X306900D01*
X306500Y387700D01*
X306100Y387300D01*
X305700D01*
X306100Y386900D01*
X305700Y386500D01*
X306100D01*
X306500Y386100D01*
X295500Y406500D02*
X295900Y406900D01*
X296300D01*
X295900Y407300D01*
X296300Y407700D01*
X295900D01*
X295500Y408100D01*
X295100Y407700D01*
X294700D01*
X295100Y407300D01*
X294700Y406900D01*
X295100D01*
X295500Y406500D01*
X239700Y311900D02*
X240100Y312300D01*
X240500D01*
X240100Y312700D01*
X240500Y313100D01*
X240100D01*
X239700Y313500D01*
X239300Y313100D01*
X238900D01*
X239300Y312700D01*
X238900Y312300D01*
X239300D01*
X239700Y311900D01*
X230700Y435600D02*
X231100Y436000D01*
X231500D01*
X231100Y436400D01*
X231500Y436800D01*
X231100D01*
X230700Y437200D01*
X230300Y436800D01*
X229900D01*
X230300Y436400D01*
X229900Y436000D01*
X230300D01*
X230700Y435600D01*
X248900Y419400D02*
X249300Y419800D01*
X249700D01*
X249300Y420200D01*
X249700Y420600D01*
X249300D01*
X248900Y421000D01*
X248500Y420600D01*
X248100D01*
X248500Y420200D01*
X248100Y419800D01*
X248500D01*
X248900Y419400D01*
X274928Y442309D02*
X275328Y442709D01*
X275728D01*
X275328Y443109D01*
X275728Y443509D01*
X275328D01*
X274928Y443909D01*
X274528Y443509D01*
X274128D01*
X274528Y443109D01*
X274128Y442709D01*
X274528D01*
X274928Y442309D01*
X264400Y430700D02*
X264800Y431100D01*
X265200D01*
X264800Y431500D01*
X265200Y431900D01*
X264800D01*
X264400Y432300D01*
X264000Y431900D01*
X263600D01*
X264000Y431500D01*
X263600Y431100D01*
X264000D01*
X264400Y430700D01*
X309752Y336100D02*
X310152Y336500D01*
X310552D01*
X310152Y336900D01*
X310552Y337300D01*
X310152D01*
X309752Y337700D01*
X309352Y337300D01*
X308952D01*
X309352Y336900D01*
X308952Y336500D01*
X309352D01*
X309752Y336100D01*
X320000Y410100D02*
X320400Y410500D01*
X320800D01*
X320400Y410900D01*
X320800Y411300D01*
X320400D01*
X320000Y411700D01*
X319600Y411300D01*
X319200D01*
X319600Y410900D01*
X319200Y410500D01*
X319600D01*
X320000Y410100D01*
X302100Y380100D02*
X302500Y380500D01*
X302900D01*
X302500Y380900D01*
X302900Y381300D01*
X302500D01*
X302100Y381700D01*
X301700Y381300D01*
X301300D01*
X301700Y380900D01*
X301300Y380500D01*
X301700D01*
X302100Y380100D01*
X277900Y325700D02*
X278300Y326100D01*
X278700D01*
X278300Y326500D01*
X278700Y326900D01*
X278300D01*
X277900Y327300D01*
X277500Y326900D01*
X277100D01*
X277500Y326500D01*
X277100Y326100D01*
X277500D01*
X277900Y325700D01*
X306279Y442300D02*
X306679Y442700D01*
X307079D01*
X306679Y443100D01*
X307079Y443500D01*
X306679D01*
X306279Y443900D01*
X305879Y443500D01*
X305479D01*
X305879Y443100D01*
X305479Y442700D01*
X305879D01*
X306279Y442300D01*
X268900Y440600D02*
X269300Y441000D01*
X269700D01*
X269300Y441400D01*
X269700Y441800D01*
X269300D01*
X268900Y442200D01*
X268500Y441800D01*
X268100D01*
X268500Y441400D01*
X268100Y441000D01*
X268500D01*
X268900Y440600D01*
X267200Y424100D02*
X267600Y424500D01*
X268000D01*
X267600Y424900D01*
X268000Y425300D01*
X267600D01*
X267200Y425700D01*
X266800Y425300D01*
X266400D01*
X266800Y424900D01*
X266400Y424500D01*
X266800D01*
X267200Y424100D01*
X292200Y442900D02*
X292600Y443300D01*
X293000D01*
X292600Y443700D01*
X293000Y444100D01*
X292600D01*
X292200Y444500D01*
X291800Y444100D01*
X291400D01*
X291800Y443700D01*
X291400Y443300D01*
X291800D01*
X292200Y442900D01*
X269700Y435800D02*
X270100Y436200D01*
X270500D01*
X270100Y436600D01*
X270500Y437000D01*
X270100D01*
X269700Y437400D01*
X269300Y437000D01*
X268900D01*
X269300Y436600D01*
X268900Y436200D01*
X269300D01*
X269700Y435800D01*
X298000Y440700D02*
X298400Y441100D01*
X298800D01*
X298400Y441500D01*
X298800Y441900D01*
X298400D01*
X298000Y442300D01*
X297600Y441900D01*
X297200D01*
X297600Y441500D01*
X297200Y441100D01*
X297600D01*
X298000Y440700D01*
X313500Y440932D02*
X313900Y441332D01*
X314300D01*
X313900Y441732D01*
X314300Y442132D01*
X313900D01*
X313500Y442532D01*
X313100Y442132D01*
X312700D01*
X313100Y441732D01*
X312700Y441332D01*
X313100D01*
X313500Y440932D01*
X299600Y376200D02*
X300000Y376600D01*
X300400D01*
X300000Y377000D01*
X300400Y377400D01*
X300000D01*
X299600Y377800D01*
X299200Y377400D01*
X298800D01*
X299200Y377000D01*
X298800Y376600D01*
X299200D01*
X299600Y376200D01*
X307200Y437100D02*
X307600Y437500D01*
X308000D01*
X307600Y437900D01*
X308000Y438300D01*
X307600D01*
X307200Y438700D01*
X306800Y438300D01*
X306400D01*
X306800Y437900D01*
X306400Y437500D01*
X306800D01*
X307200Y437100D01*
Y410100D02*
X307600Y410500D01*
X308000D01*
X307600Y410900D01*
X308000Y411300D01*
X307600D01*
X307200Y411700D01*
X306800Y411300D01*
X306400D01*
X306800Y410900D01*
X306400Y410500D01*
X306800D01*
X307200Y410100D01*
X230700Y293300D02*
X231100Y293700D01*
X231500D01*
X231100Y294100D01*
X231500Y294500D01*
X231100D01*
X230700Y294900D01*
X230300Y294500D01*
X229900D01*
X230300Y294100D01*
X229900Y293700D01*
X230300D01*
X230700Y293300D01*
X188700Y342400D02*
X189100Y342800D01*
X189500D01*
X189100Y343200D01*
X189500Y343600D01*
X189100D01*
X188700Y344000D01*
X188300Y343600D01*
X187900D01*
X188300Y343200D01*
X187900Y342800D01*
X188300D01*
X188700Y342400D01*
X222441Y290359D02*
X222841Y290759D01*
X223241D01*
X222841Y291159D01*
X223241Y291559D01*
X222841D01*
X222441Y291959D01*
X222041Y291559D01*
X221641D01*
X222041Y291159D01*
X221641Y290759D01*
X222041D01*
X222441Y290359D01*
X316400Y433413D02*
X316800Y433813D01*
X317200D01*
X316800Y434213D01*
X317200Y434613D01*
X316800D01*
X316400Y435013D01*
X316000Y434613D01*
X315600D01*
X316000Y434213D01*
X315600Y433813D01*
X316000D01*
X316400Y433413D01*
X319500Y423300D02*
X319900Y423700D01*
X320300D01*
X319900Y424100D01*
X320300Y424500D01*
X319900D01*
X319500Y424900D01*
X319100Y424500D01*
X318700D01*
X319100Y424100D01*
X318700Y423700D01*
X319100D01*
X319500Y423300D01*
X317500Y417300D02*
X317900Y417700D01*
X318300D01*
X317900Y418100D01*
X318300Y418500D01*
X317900D01*
X317500Y418900D01*
X317100Y418500D01*
X316700D01*
X317100Y418100D01*
X316700Y417700D01*
X317100D01*
X317500Y417300D01*
X311700Y287586D02*
X312100Y287986D01*
X312500D01*
X312100Y288386D01*
X312500Y288786D01*
X312100D01*
X311700Y289186D01*
X311300Y288786D01*
X310900D01*
X311300Y288386D01*
X310900Y287986D01*
X311300D01*
X311700Y287586D01*
X272930Y427170D02*
X273330Y427570D01*
X273730D01*
X273330Y427970D01*
X273730Y428370D01*
X273330D01*
X272930Y428770D01*
X272530Y428370D01*
X272130D01*
X272530Y427970D01*
X272130Y427570D01*
X272530D01*
X272930Y427170D01*
X282900Y314300D02*
X283300Y314700D01*
X283700D01*
X283300Y315100D01*
X283700Y315500D01*
X283300D01*
X282900Y315900D01*
X282500Y315500D01*
X282100D01*
X282500Y315100D01*
X282100Y314700D01*
X282500D01*
X282900Y314300D01*
X286100Y372100D02*
X286500Y372500D01*
X286900D01*
X286500Y372900D01*
X286900Y373300D01*
X286500D01*
X286100Y373700D01*
X285700Y373300D01*
X285300D01*
X285700Y372900D01*
X285300Y372500D01*
X285700D01*
X286100Y372100D01*
X257700Y381200D02*
X258100Y381600D01*
X258500D01*
X258100Y382000D01*
X258500Y382400D01*
X258100D01*
X257700Y382800D01*
X257300Y382400D01*
X256900D01*
X257300Y382000D01*
X256900Y381600D01*
X257300D01*
X257700Y381200D01*
X266100Y354400D02*
X266500Y354800D01*
X266900D01*
X266500Y355200D01*
X266900Y355600D01*
X266500D01*
X266100Y356000D01*
X265700Y355600D01*
X265300D01*
X265700Y355200D01*
X265300Y354800D01*
X265700D01*
X266100Y354400D01*
D74*
X297690Y366024D02*
G03*
X297690Y366024I-800J0D01*
G01*
Y398543D02*
G03*
X297690Y398543I-800J0D01*
G01*
X321115Y399961D02*
G03*
X321115Y399961I-800J0D01*
G01*
Y364606D02*
G03*
X321115Y364606I-800J0D01*
G01*
M02*
