G04*
G04 #@! TF.GenerationSoftware,Altium Limited,Altium Designer,20.0.2 (26)*
G04*
G04 Layer_Physical_Order=2*
G04 Layer_Color=16711680*
%FSLAX25Y25*%
%MOIN*%
G70*
G01*
G75*
%ADD13R,0.05433X0.03622*%
%ADD14R,0.03622X0.05433*%
%ADD17R,0.05906X0.05118*%
%ADD44C,0.01181*%
%ADD45C,0.02559*%
%ADD46O,0.06299X0.03150*%
%ADD47C,0.02657*%
%ADD48R,0.05118X0.05906*%
G04:AMPARAMS|DCode=49|XSize=48.42mil|YSize=23.62mil|CornerRadius=5.91mil|HoleSize=0mil|Usage=FLASHONLY|Rotation=180.000|XOffset=0mil|YOffset=0mil|HoleType=Round|Shape=RoundedRectangle|*
%AMROUNDEDRECTD49*
21,1,0.04842,0.01181,0,0,180.0*
21,1,0.03661,0.02362,0,0,180.0*
1,1,0.01181,-0.01831,0.00591*
1,1,0.01181,0.01831,0.00591*
1,1,0.01181,0.01831,-0.00591*
1,1,0.01181,-0.01831,-0.00591*
%
%ADD49ROUNDEDRECTD49*%
%ADD50R,0.13386X0.05118*%
%ADD51R,0.04724X0.05512*%
%ADD52R,0.07480X0.04331*%
%ADD53R,0.02362X0.01968*%
%ADD54R,0.03937X0.04724*%
%ADD55R,0.21850X0.23898*%
%ADD56R,0.03819X0.09606*%
%ADD57R,0.07874X0.07087*%
%ADD58R,0.01181X0.11811*%
G36*
X321194Y452453D02*
X322627Y451860D01*
X323917Y450998D01*
X325014Y449901D01*
X325875Y448612D01*
X326469Y447179D01*
X326772Y445657D01*
Y444882D01*
X326772Y279528D01*
Y278752D01*
X326469Y277231D01*
X325875Y275798D01*
X325014Y274508D01*
X323917Y273411D01*
X322627Y272550D01*
X321194Y271956D01*
X319673Y271654D01*
X318898D01*
Y271654D01*
X184264D01*
X182743Y271956D01*
X181310Y272550D01*
X180020Y273411D01*
X178923Y274508D01*
X178061Y275798D01*
X177468Y277231D01*
X177165Y278752D01*
Y279528D01*
Y444882D01*
Y445657D01*
X177468Y447179D01*
X178061Y448612D01*
X178923Y449901D01*
X180020Y450998D01*
X181310Y451860D01*
X182743Y452453D01*
X184264Y452756D01*
X319673D01*
X321194Y452453D01*
D02*
G37*
%LPC*%
G36*
X266748Y451590D02*
X263689D01*
Y448138D01*
X266748D01*
Y451590D01*
D02*
G37*
G36*
X270366D02*
X267307D01*
Y448138D01*
X270366D01*
Y451590D01*
D02*
G37*
G36*
X262689D02*
X259630D01*
Y448138D01*
X262689D01*
Y451590D01*
D02*
G37*
G36*
X284673Y448681D02*
X284284Y448604D01*
X283530Y448100D01*
X283026Y447346D01*
X282948Y446957D01*
X284673D01*
Y448681D01*
D02*
G37*
G36*
X266748Y447138D02*
X263689D01*
Y443685D01*
X266748D01*
Y447138D01*
D02*
G37*
G36*
X262689D02*
X259630D01*
Y443685D01*
X262689D01*
Y447138D01*
D02*
G37*
G36*
X314043Y451347D02*
X309224D01*
Y444717D01*
X314043D01*
Y446088D01*
X314598D01*
X315808Y444878D01*
X315774Y444711D01*
X315920Y443978D01*
X316277Y443444D01*
X316121Y442944D01*
X314949D01*
X314854Y443086D01*
X314233Y443501D01*
X313500Y443647D01*
X312767Y443501D01*
X312146Y443086D01*
X311731Y442465D01*
X311585Y441732D01*
X311731Y441000D01*
X312146Y440378D01*
X312767Y439963D01*
X313500Y439817D01*
X314233Y439963D01*
X314854Y440378D01*
X314949Y440520D01*
X318732D01*
Y439323D01*
X325362D01*
Y444142D01*
X319885D01*
X319567Y444528D01*
X319604Y444711D01*
X319458Y445444D01*
X319043Y446065D01*
X318422Y446480D01*
X317689Y446626D01*
X317522Y446593D01*
X315957Y448157D01*
X315564Y448420D01*
X315100Y448512D01*
X314043D01*
Y451347D01*
D02*
G37*
G36*
X270366Y447138D02*
X267307D01*
Y443685D01*
X267317D01*
X267469Y443185D01*
X267257Y443044D01*
X266753Y442289D01*
X266675Y441900D01*
X271125D01*
X271047Y442289D01*
X270543Y443044D01*
X270332Y443185D01*
X270366Y443299D01*
Y447138D01*
D02*
G37*
G36*
X283000Y442800D02*
X281275D01*
X281353Y442411D01*
X281857Y441656D01*
X282611Y441153D01*
X283000Y441075D01*
Y442800D01*
D02*
G37*
G36*
X321547Y437024D02*
X318331D01*
Y436258D01*
X317831Y435998D01*
X317289Y436360D01*
X316900Y436437D01*
Y434213D01*
X316400D01*
Y433713D01*
X314175D01*
X314253Y433323D01*
X314757Y432569D01*
X315511Y432065D01*
X315930Y431982D01*
X316160Y431426D01*
X316031Y431233D01*
X315885Y430500D01*
X316031Y429767D01*
X316446Y429146D01*
X317067Y428731D01*
X317800Y428585D01*
X318232Y428671D01*
X318726Y428313D01*
X318732Y428300D01*
Y425846D01*
X318146Y425454D01*
X317731Y424833D01*
X317585Y424100D01*
X317731Y423367D01*
X318146Y422746D01*
X318709Y422370D01*
Y420650D01*
X318712Y420633D01*
X318550Y420439D01*
X318232Y420279D01*
X318000Y420325D01*
Y418100D01*
Y415875D01*
X318232Y415921D01*
X318732Y415626D01*
Y412312D01*
X318646Y412254D01*
X318231Y411633D01*
X318085Y410900D01*
X318231Y410167D01*
X318543Y409701D01*
X318732Y409279D01*
Y404461D01*
X323488D01*
Y402564D01*
X322988Y402293D01*
X322562Y402469D01*
X321890Y402558D01*
X320815D01*
Y399961D01*
Y397364D01*
X321890D01*
X322562Y397452D01*
X322988Y397629D01*
X323488Y397358D01*
Y395202D01*
X319167Y390881D01*
X319000Y390915D01*
X318267Y390769D01*
X317646Y390354D01*
X317231Y389733D01*
X317085Y389000D01*
X317231Y388267D01*
X317646Y387646D01*
X318267Y387231D01*
X319000Y387085D01*
X319733Y387231D01*
X320354Y387646D01*
X320769Y388267D01*
X320915Y389000D01*
X320882Y389167D01*
X325557Y393843D01*
X325820Y394236D01*
X325912Y394700D01*
Y406870D01*
X325820Y407334D01*
X325557Y407727D01*
X325362Y407858D01*
Y409279D01*
X321777D01*
X321510Y409779D01*
X321769Y410167D01*
X321915Y410900D01*
X321799Y411480D01*
X322092Y411980D01*
X325362D01*
Y416799D01*
X319928D01*
X319665Y417299D01*
X319824Y418100D01*
X319939Y418240D01*
X325362D01*
Y423059D01*
X321664D01*
X321575Y423128D01*
X321307Y423559D01*
X321415Y424100D01*
X321269Y424833D01*
X320984Y425260D01*
X321228Y425760D01*
X325362D01*
Y430579D01*
X320412D01*
X320104Y430954D01*
X320289Y431402D01*
X321547D01*
Y434213D01*
Y437024D01*
D02*
G37*
G36*
X274425Y451590D02*
X271366D01*
Y447638D01*
Y443685D01*
X272734D01*
X273051Y443298D01*
X273013Y443109D01*
X273159Y442377D01*
X273574Y441755D01*
X274195Y441340D01*
X274928Y441194D01*
X275661Y441340D01*
X276282Y441755D01*
X276697Y442377D01*
X276843Y443109D01*
X276748Y443587D01*
X277089Y444087D01*
X280938D01*
X281173Y443800D01*
X283500D01*
Y443300D01*
X284000D01*
Y440894D01*
X284158Y440597D01*
X278905Y435344D01*
X271650D01*
X271414Y435785D01*
X271469Y435867D01*
X271615Y436600D01*
X271469Y437333D01*
X271054Y437954D01*
X270433Y438369D01*
X269740Y438507D01*
X269662Y438564D01*
X269558Y438697D01*
X269757Y439246D01*
X269789Y439253D01*
X270543Y439756D01*
X271047Y440511D01*
X271125Y440900D01*
X266404D01*
X266305Y440779D01*
X261032D01*
Y442331D01*
X257905D01*
Y443100D01*
X257813Y443564D01*
X257798Y443587D01*
X258000Y444031D01*
X258065Y444087D01*
X258866D01*
Y451189D01*
X252551D01*
Y444087D01*
X254496D01*
Y444084D01*
X254589Y443620D01*
X254851Y443227D01*
X255248Y442831D01*
X255041Y442331D01*
X252354D01*
Y436803D01*
X261032D01*
Y438355D01*
X266231D01*
X267818Y436767D01*
X267785Y436600D01*
X267931Y435867D01*
X267986Y435785D01*
X267751Y435344D01*
X249226D01*
X248762Y435251D01*
X248369Y434989D01*
X235993Y422612D01*
X234649D01*
X234554Y422754D01*
X233933Y423169D01*
X233200Y423315D01*
X232467Y423169D01*
X231846Y422754D01*
X231431Y422133D01*
X231285Y421400D01*
X231376Y420946D01*
X230915Y420700D01*
X228378Y423237D01*
Y432363D01*
X230533Y434518D01*
X230700Y434485D01*
X231433Y434631D01*
X232054Y435046D01*
X232469Y435667D01*
X232615Y436400D01*
X232469Y437133D01*
X232054Y437754D01*
X231433Y438169D01*
X230700Y438315D01*
X229967Y438169D01*
X229346Y437754D01*
X228931Y437133D01*
X228785Y436400D01*
X228818Y436233D01*
X226308Y433722D01*
X226045Y433329D01*
X225953Y432865D01*
Y422735D01*
X226045Y422271D01*
X226308Y421877D01*
X231443Y416743D01*
X231836Y416480D01*
X232300Y416388D01*
X246300D01*
X246764Y416480D01*
X247157Y416743D01*
X248733Y418319D01*
X248900Y418285D01*
X249633Y418431D01*
X250254Y418846D01*
X250669Y419467D01*
X250815Y420200D01*
X250669Y420933D01*
X250254Y421554D01*
X249633Y421969D01*
X248900Y422115D01*
X248167Y421969D01*
X247546Y421554D01*
X247131Y420933D01*
X246985Y420200D01*
X247019Y420033D01*
X245798Y418812D01*
X232859D01*
X232642Y419090D01*
X232887Y419548D01*
X233200Y419485D01*
X233933Y419631D01*
X234554Y420046D01*
X234649Y420188D01*
X236495D01*
X236959Y420280D01*
X237352Y420543D01*
X249728Y432919D01*
X252188D01*
X252354Y432488D01*
X252354D01*
Y426961D01*
X261032D01*
Y428512D01*
X263991D01*
X264198Y428012D01*
X262643Y426457D01*
X262380Y426064D01*
X262288Y425600D01*
Y425401D01*
X258260D01*
Y419012D01*
X257488D01*
Y425401D01*
X251567D01*
Y418946D01*
X251436Y418920D01*
X251043Y418657D01*
X250043Y417657D01*
X249780Y417264D01*
X249688Y416800D01*
Y406218D01*
X249780Y405754D01*
X250043Y405361D01*
X251143Y404261D01*
X251536Y403998D01*
X251961Y403914D01*
Y401961D01*
X259063D01*
Y407688D01*
X260622D01*
Y401764D01*
X267724D01*
Y408079D01*
X265873D01*
X265666Y408579D01*
X266288Y409200D01*
X266551Y409593D01*
X266643Y410057D01*
Y422702D01*
X267029Y423019D01*
X267200Y422985D01*
X267933Y423131D01*
X268329Y423396D01*
X268779Y423095D01*
X268760Y423000D01*
X268906Y422267D01*
X269321Y421646D01*
X269942Y421231D01*
X270675Y421085D01*
X271408Y421231D01*
X272029Y421646D01*
X272123Y421788D01*
X282698D01*
X291288Y413198D01*
Y406228D01*
X290847Y405993D01*
X290733Y406069D01*
X290000Y406215D01*
X289267Y406069D01*
X288646Y405654D01*
X288551Y405512D01*
X283000D01*
X282536Y405420D01*
X282143Y405157D01*
X279443Y402457D01*
X279180Y402064D01*
X279088Y401600D01*
Y400545D01*
X278588Y400496D01*
X278541Y400733D01*
X278126Y401354D01*
X277504Y401769D01*
X276772Y401915D01*
X276039Y401769D01*
X275418Y401354D01*
X275003Y400733D01*
X274857Y400000D01*
X274890Y399833D01*
X273552Y398495D01*
X273289Y398102D01*
X273197Y397638D01*
Y397252D01*
X272630D01*
Y394087D01*
X276189D01*
Y397252D01*
X276189D01*
X276057Y397571D01*
X276605Y398118D01*
X276772Y398085D01*
X277504Y398231D01*
X278126Y398646D01*
X278541Y399267D01*
X278588Y399504D01*
X279088Y399455D01*
Y391702D01*
X278362Y390976D01*
X266632D01*
X266441Y391476D01*
X266769Y391967D01*
X266915Y392700D01*
X266779Y393382D01*
X266807Y393522D01*
X266999Y393882D01*
X268126D01*
Y396941D01*
X264173D01*
X260220D01*
Y394241D01*
X259965Y394107D01*
X259465Y394394D01*
Y397138D01*
X255512D01*
X251559D01*
Y394412D01*
X251559Y394079D01*
X251128Y393912D01*
X221440D01*
X220976Y393820D01*
X220583Y393557D01*
X211741Y384716D01*
X211478Y384322D01*
X211386Y383858D01*
Y357902D01*
X211478Y357438D01*
X211741Y357045D01*
X235040Y333745D01*
X234849Y333283D01*
X234555D01*
Y326378D01*
Y319473D01*
X235646D01*
Y319874D01*
X240402D01*
Y315394D01*
X240200Y315183D01*
Y312700D01*
Y310475D01*
X240589Y310553D01*
X241343Y311057D01*
X241847Y311811D01*
X241967Y312411D01*
X242600Y312285D01*
X243333Y312431D01*
X243954Y312846D01*
X244369Y313467D01*
X244515Y314200D01*
X244369Y314933D01*
X243954Y315554D01*
X243333Y315969D01*
X242827Y316070D01*
Y316966D01*
X243288Y317158D01*
X246158Y314288D01*
X246551Y314025D01*
X247015Y313933D01*
X247697D01*
X247791Y313791D01*
X248412Y313376D01*
X249145Y313230D01*
X249878Y313376D01*
X250499Y313791D01*
X250914Y314412D01*
X250935Y314516D01*
X251413Y314661D01*
X252431Y313643D01*
X252824Y313380D01*
X253288Y313288D01*
X253951D01*
X254046Y313146D01*
X254667Y312731D01*
X255400Y312585D01*
X256133Y312731D01*
X256754Y313146D01*
X257169Y313767D01*
X257315Y314500D01*
X257169Y315233D01*
X256754Y315854D01*
X256133Y316269D01*
X255400Y316415D01*
X254667Y316269D01*
X254046Y315854D01*
X253532Y315971D01*
X250492Y319011D01*
X250563Y319181D01*
Y326378D01*
X251563D01*
Y319473D01*
X252654D01*
Y319874D01*
X255142D01*
Y319473D01*
X256232D01*
Y326378D01*
Y333283D01*
X256055D01*
Y335498D01*
X261920Y341363D01*
X262183Y341757D01*
X262224Y341961D01*
X263472D01*
Y345244D01*
X272057D01*
X272521Y345337D01*
X272914Y345600D01*
X273055Y345741D01*
X273555Y345534D01*
Y344882D01*
X273679Y344261D01*
X274030Y343735D01*
X274556Y343384D01*
X274889Y343318D01*
X274994Y342787D01*
X274646Y342554D01*
X274551Y342412D01*
X266988D01*
X266525Y342320D01*
X266131Y342057D01*
X259655Y335581D01*
X259392Y335187D01*
X259299Y334723D01*
Y333283D01*
X259122D01*
Y326378D01*
Y319473D01*
X260213D01*
Y319874D01*
X261189D01*
Y313295D01*
X260372Y312478D01*
X260205Y312511D01*
X259472Y312366D01*
X258851Y311950D01*
X258436Y311329D01*
X258290Y310597D01*
X258436Y309864D01*
X258851Y309243D01*
X259472Y308828D01*
X260205Y308682D01*
X260938Y308828D01*
X261559Y309243D01*
X261974Y309864D01*
X262120Y310597D01*
X262087Y310764D01*
X263259Y311936D01*
X263522Y312329D01*
X263614Y312793D01*
Y319874D01*
X264969D01*
Y310984D01*
X265061Y310520D01*
X265324Y310127D01*
X269615Y305836D01*
X270008Y305573D01*
X270472Y305481D01*
X279831D01*
X280038Y304981D01*
X279025Y303968D01*
X269525D01*
X265736Y307757D01*
X265343Y308020D01*
X264879Y308112D01*
X240052D01*
X239957Y308254D01*
X239336Y308669D01*
X238603Y308815D01*
X237871Y308669D01*
X237249Y308254D01*
X236834Y307633D01*
X236688Y306900D01*
X236834Y306167D01*
X237249Y305546D01*
X237871Y305131D01*
X237965Y305112D01*
X237915Y304612D01*
X236449D01*
X236354Y304754D01*
X235733Y305169D01*
X235000Y305315D01*
X234267Y305169D01*
X233646Y304754D01*
X233231Y304133D01*
X233085Y303400D01*
X233231Y302667D01*
X233646Y302046D01*
X234267Y301631D01*
X235000Y301485D01*
X235733Y301631D01*
X236354Y302046D01*
X236449Y302188D01*
X253578D01*
X272288Y283478D01*
Y281449D01*
X272146Y281354D01*
X271731Y280733D01*
X271641Y280280D01*
X271098Y280116D01*
X252957Y298257D01*
X252564Y298520D01*
X252100Y298612D01*
X246400D01*
X245936Y298520D01*
X245543Y298257D01*
X235847Y288562D01*
X235585Y288169D01*
X235492Y287705D01*
Y282338D01*
X234238Y281084D01*
X233759Y281229D01*
X233747Y281289D01*
X233243Y282043D01*
X232489Y282547D01*
X232100Y282625D01*
Y280400D01*
X231100D01*
Y282625D01*
X230711Y282547D01*
X229957Y282043D01*
X229576Y281474D01*
X229039Y281426D01*
X228997Y281439D01*
X228854Y281654D01*
X228233Y282069D01*
X227500Y282215D01*
X226767Y282069D01*
X226146Y281654D01*
X225731Y281033D01*
X225585Y280300D01*
X225731Y279567D01*
X226146Y278946D01*
X226767Y278531D01*
X227500Y278385D01*
X227667Y278418D01*
X228260Y277826D01*
X228068Y277364D01*
X191555D01*
X189861Y279058D01*
X190053Y279520D01*
X190362D01*
Y286622D01*
X189795D01*
X189603Y287084D01*
X192039Y289520D01*
X194713D01*
Y300323D01*
X189697D01*
Y296112D01*
X189020D01*
X183830Y301302D01*
Y329126D01*
X185185D01*
Y334917D01*
X185185Y335047D01*
X185499Y335417D01*
X185587D01*
Y338280D01*
X182618D01*
X179650D01*
Y335417D01*
X179738D01*
X180051Y335047D01*
X180051Y334917D01*
Y329126D01*
X181406D01*
Y300800D01*
X181498Y300336D01*
X181761Y299943D01*
X187661Y294043D01*
X188054Y293780D01*
X188518Y293688D01*
X189697D01*
Y290606D01*
X186348Y287257D01*
X186085Y286864D01*
X186037Y286622D01*
X184047D01*
Y279520D01*
X186096D01*
X186348Y279143D01*
X190196Y275295D01*
X190589Y275032D01*
X191053Y274939D01*
X245352D01*
X245816Y275032D01*
X246209Y275295D01*
X246733Y275818D01*
X246900Y275785D01*
X247633Y275931D01*
X248254Y276346D01*
X248669Y276967D01*
X248815Y277700D01*
X248669Y278433D01*
X248254Y279054D01*
X247633Y279469D01*
X246900Y279615D01*
X246167Y279469D01*
X245546Y279054D01*
X245131Y278433D01*
X244985Y277700D01*
X244576Y277364D01*
X234600D01*
X234409Y277826D01*
X237562Y280979D01*
X237825Y281372D01*
X237917Y281836D01*
Y287203D01*
X246902Y296188D01*
X249072D01*
X249307Y295747D01*
X249231Y295633D01*
X249085Y294900D01*
X249231Y294167D01*
X249646Y293546D01*
X249788Y293451D01*
Y275849D01*
X249646Y275754D01*
X249231Y275133D01*
X249085Y274400D01*
X249231Y273667D01*
X249646Y273046D01*
X250267Y272631D01*
X251000Y272485D01*
X251733Y272631D01*
X252354Y273046D01*
X252769Y273667D01*
X252915Y274400D01*
X252769Y275133D01*
X252354Y275754D01*
X252212Y275849D01*
Y293451D01*
X252354Y293546D01*
X252769Y294167D01*
X252806Y294356D01*
X253285Y294501D01*
X271143Y276643D01*
X271536Y276380D01*
X272000Y276288D01*
X275500D01*
X275964Y276380D01*
X276357Y276643D01*
X279204Y279489D01*
X279466Y279883D01*
X279559Y280346D01*
Y295544D01*
X284377Y300362D01*
X290275D01*
X290739Y300455D01*
X291132Y300718D01*
X294515Y304101D01*
X295058Y303936D01*
X295131Y303567D01*
X295245Y303397D01*
Y298827D01*
X292906D01*
Y296882D01*
X291346D01*
Y298827D01*
X284244D01*
Y296728D01*
X283943Y296526D01*
X280639Y293222D01*
X280376Y292829D01*
X280284Y292365D01*
Y277704D01*
X280376Y277240D01*
X280639Y276847D01*
X283843Y273643D01*
X284236Y273380D01*
X284700Y273288D01*
X294400D01*
X294864Y273380D01*
X295257Y273643D01*
X296133Y274518D01*
X296396Y274912D01*
X296451Y275189D01*
X298433D01*
Y277528D01*
X299795D01*
Y275189D01*
X306110D01*
Y282291D01*
X299795D01*
Y279953D01*
X298433D01*
Y282291D01*
X292118D01*
Y275712D01*
X291354D01*
Y278240D01*
X287795D01*
X284236D01*
Y277331D01*
X283774Y277140D01*
X282708Y278206D01*
Y291863D01*
X283782Y292937D01*
X284244Y292745D01*
Y292512D01*
X291346D01*
Y294457D01*
X292906D01*
Y292512D01*
X300008D01*
Y294654D01*
X301567D01*
Y292709D01*
X308669D01*
Y299024D01*
X301567D01*
Y297078D01*
X300008D01*
Y298827D01*
X297669D01*
Y302555D01*
X298254Y302946D01*
X298378Y303131D01*
X298878D01*
X298934Y303048D01*
X299555Y302633D01*
X300288Y302487D01*
X301020Y302633D01*
X301641Y303048D01*
X302057Y303669D01*
X302202Y304402D01*
X302057Y305134D01*
X301641Y305755D01*
X301020Y306171D01*
X300288Y306316D01*
X300122Y306283D01*
X299531Y306874D01*
X299723Y307336D01*
X313148D01*
X313612Y307428D01*
X314005Y307691D01*
X315857Y309543D01*
X316120Y309936D01*
X316212Y310400D01*
Y335651D01*
X316354Y335746D01*
X316769Y336367D01*
X316915Y337100D01*
X316769Y337833D01*
X316693Y337947D01*
X316929Y338388D01*
X321425D01*
X321889Y338480D01*
X322282Y338743D01*
X325557Y342018D01*
X325820Y342411D01*
X325912Y342875D01*
Y377300D01*
X325820Y377764D01*
X325557Y378157D01*
X311812Y391902D01*
Y435251D01*
X311954Y435346D01*
X312369Y435967D01*
X312515Y436700D01*
X312369Y437433D01*
X311954Y438054D01*
X311333Y438469D01*
X310600Y438615D01*
X309867Y438469D01*
X309553Y438259D01*
X308998Y438489D01*
X308969Y438633D01*
X308554Y439254D01*
X307933Y439669D01*
X307200Y439815D01*
X306467Y439669D01*
X306043Y439386D01*
X305543Y439632D01*
Y440469D01*
X305470Y440836D01*
X305668Y441133D01*
X305746Y441205D01*
X305893Y441262D01*
X306279Y441185D01*
X307011Y441331D01*
X307632Y441746D01*
X308048Y442367D01*
X308193Y443100D01*
X308048Y443833D01*
X307632Y444454D01*
X307011Y444869D01*
X306524Y444966D01*
Y451347D01*
X301705D01*
Y445617D01*
X301243Y445426D01*
X300264Y446405D01*
Y451347D01*
X295445D01*
Y444717D01*
X298523D01*
X299722Y443518D01*
X299680Y443168D01*
X299184Y442967D01*
X298733Y443269D01*
X298000Y443415D01*
X297267Y443269D01*
X296646Y442854D01*
X296231Y442233D01*
X296085Y441500D01*
X296231Y440767D01*
X296646Y440146D01*
X296788Y440051D01*
Y409737D01*
X296288Y409468D01*
X296000Y409525D01*
Y407300D01*
X295000D01*
Y409525D01*
X294611Y409447D01*
X294212Y409181D01*
X293712Y409448D01*
Y413700D01*
X293620Y414164D01*
X293357Y414557D01*
X284057Y423857D01*
X283664Y424120D01*
X283200Y424212D01*
X272123D01*
X272029Y424354D01*
X271408Y424769D01*
X270675Y424915D01*
X269942Y424769D01*
X269546Y424504D01*
X269096Y424805D01*
X269115Y424900D01*
X268969Y425633D01*
X268914Y425715D01*
X269149Y426156D01*
X272328D01*
X272376Y426166D01*
X272930Y426056D01*
X273662Y426201D01*
X274284Y426616D01*
X274699Y427238D01*
X274844Y427970D01*
X274699Y428703D01*
X274284Y429324D01*
X273829Y429628D01*
X273775Y430135D01*
X273795Y430206D01*
X273854Y430246D01*
X274269Y430867D01*
X274415Y431600D01*
X274269Y432333D01*
X274172Y432478D01*
X274408Y432919D01*
X279407D01*
X279871Y433011D01*
X280264Y433274D01*
X286804Y439814D01*
X286971Y439780D01*
X287704Y439926D01*
X288325Y440341D01*
X288740Y440962D01*
X288886Y441695D01*
X288740Y442428D01*
X288325Y443049D01*
X287704Y443464D01*
X286971Y443610D01*
X286238Y443464D01*
X286177Y443497D01*
X285982Y444168D01*
X286063Y444309D01*
X286817Y444813D01*
X287320Y445567D01*
X287425Y446094D01*
X287925Y446045D01*
Y444717D01*
X290065D01*
X290388Y444217D01*
X290285Y443700D01*
X290431Y442967D01*
X290846Y442346D01*
X291467Y441931D01*
X292200Y441785D01*
X292933Y441931D01*
X293554Y442346D01*
X293969Y442967D01*
X294115Y443700D01*
X293969Y444433D01*
X293554Y445054D01*
X293412Y445149D01*
Y445235D01*
X293320Y445698D01*
X293057Y446092D01*
X292744Y446405D01*
Y451347D01*
X287925D01*
Y446869D01*
X287425Y446819D01*
X287320Y447346D01*
X286817Y448100D01*
X286063Y448604D01*
X285673Y448681D01*
Y446457D01*
X285173D01*
Y445957D01*
X282899D01*
X282611Y445447D01*
X282004Y445042D01*
X281504Y445247D01*
Y451189D01*
X275189D01*
Y449280D01*
X274871Y449130D01*
X274425Y449440D01*
Y451590D01*
D02*
G37*
G36*
X325764Y437024D02*
X322547D01*
Y434713D01*
X325764D01*
Y437024D01*
D02*
G37*
G36*
X315900Y436437D02*
X315511Y436360D01*
X314757Y435856D01*
X314253Y435102D01*
X314175Y434713D01*
X315900D01*
Y436437D01*
D02*
G37*
G36*
X325764Y433713D02*
X322547D01*
Y431402D01*
X325764D01*
Y433713D01*
D02*
G37*
G36*
X240900Y441715D02*
X240167Y441569D01*
X239546Y441154D01*
X239131Y440533D01*
X238985Y439800D01*
X239131Y439067D01*
X239546Y438446D01*
X239688Y438351D01*
Y433149D01*
X239546Y433054D01*
X239131Y432433D01*
X238985Y431700D01*
X239131Y430967D01*
X239546Y430346D01*
X240167Y429931D01*
X240900Y429785D01*
X241633Y429931D01*
X242254Y430346D01*
X242669Y430967D01*
X242815Y431700D01*
X242669Y432433D01*
X242254Y433054D01*
X242112Y433149D01*
Y438351D01*
X242254Y438446D01*
X242669Y439067D01*
X242815Y439800D01*
X242669Y440533D01*
X242254Y441154D01*
X241633Y441569D01*
X240900Y441715D01*
D02*
G37*
G36*
X317000Y420325D02*
X316611Y420247D01*
X315857Y419743D01*
X315353Y418989D01*
X315275Y418600D01*
X317000D01*
Y420325D01*
D02*
G37*
G36*
Y417600D02*
X315275D01*
X315353Y417211D01*
X315857Y416457D01*
X316611Y415953D01*
X317000Y415875D01*
Y417600D01*
D02*
G37*
G36*
X319815Y402558D02*
X318740D01*
X318068Y402469D01*
X317442Y402210D01*
X316904Y401797D01*
X316491Y401259D01*
X316232Y400633D01*
X316209Y400461D01*
X319815D01*
Y402558D01*
D02*
G37*
G36*
X259465Y401197D02*
X256012D01*
Y398138D01*
X259465D01*
Y401197D01*
D02*
G37*
G36*
X255012D02*
X251559D01*
Y398138D01*
X255012D01*
Y401197D01*
D02*
G37*
G36*
X268126Y401000D02*
X264673D01*
Y397941D01*
X268126D01*
Y401000D01*
D02*
G37*
G36*
X263673D02*
X260220D01*
Y397941D01*
X263673D01*
Y401000D01*
D02*
G37*
G36*
X319815Y399461D02*
X316209D01*
X316232Y399289D01*
X316491Y398662D01*
X316904Y398124D01*
X317442Y397712D01*
X318068Y397452D01*
X318740Y397364D01*
X319815D01*
Y399461D01*
D02*
G37*
G36*
X193413Y348068D02*
Y346343D01*
X195138D01*
X195061Y346732D01*
X194557Y347486D01*
X193803Y347990D01*
X193413Y348068D01*
D02*
G37*
G36*
X192413D02*
X192024Y347990D01*
X191270Y347486D01*
X190766Y346732D01*
X190689Y346343D01*
X192413D01*
Y348068D01*
D02*
G37*
G36*
X195138Y345343D02*
X193413D01*
Y343618D01*
X193803Y343696D01*
X194557Y344199D01*
X195061Y344953D01*
X195138Y345343D01*
D02*
G37*
G36*
X192413D02*
X190689D01*
X190766Y344953D01*
X191270Y344199D01*
X192024Y343696D01*
X192413Y343618D01*
Y345343D01*
D02*
G37*
G36*
X185587Y342142D02*
X183118D01*
Y339280D01*
X185587D01*
Y342142D01*
D02*
G37*
G36*
X182118D02*
X179650D01*
Y339280D01*
X182118D01*
Y342142D01*
D02*
G37*
G36*
X233555Y333283D02*
X232465D01*
Y326878D01*
X233555D01*
Y333283D01*
D02*
G37*
G36*
X258122D02*
X257232D01*
Y326378D01*
Y319473D01*
X258122D01*
Y326378D01*
Y333283D01*
D02*
G37*
G36*
X233555Y325878D02*
X232465D01*
Y319473D01*
X233555D01*
Y325878D01*
D02*
G37*
G36*
X239200Y314925D02*
X238811Y314847D01*
X238057Y314343D01*
X237553Y313589D01*
X237475Y313200D01*
X239200D01*
Y314925D01*
D02*
G37*
G36*
X231681Y319693D02*
X222610D01*
Y311409D01*
X231681D01*
Y319693D01*
D02*
G37*
G36*
X239200Y312200D02*
X237475D01*
X237553Y311811D01*
X238057Y311057D01*
X238811Y310553D01*
X239200Y310475D01*
Y312200D01*
D02*
G37*
G36*
X241600Y299769D02*
X240867Y299623D01*
X240246Y299208D01*
X239831Y298587D01*
X239685Y297854D01*
X239719Y297687D01*
X231843Y289812D01*
X224813D01*
X224612Y290189D01*
X224597Y290312D01*
X224666Y290659D01*
X220216D01*
X220285Y290312D01*
X220270Y290189D01*
X220069Y289812D01*
X217190D01*
X216815Y290200D01*
X216669Y290933D01*
X216254Y291554D01*
X215633Y291969D01*
X214900Y292115D01*
X214167Y291969D01*
X213567Y291568D01*
X213446Y291592D01*
X213067Y291737D01*
Y294421D01*
X210657D01*
Y289118D01*
X213067D01*
X213489Y288931D01*
X213546Y288846D01*
X214167Y288431D01*
X214900Y288285D01*
X215067Y288318D01*
X215643Y287743D01*
X216036Y287480D01*
X216500Y287388D01*
X232346D01*
X232809Y287480D01*
X233203Y287743D01*
X241433Y295973D01*
X241600Y295940D01*
X242333Y296085D01*
X242954Y296500D01*
X243369Y297122D01*
X243515Y297854D01*
X243369Y298587D01*
X242954Y299208D01*
X242333Y299623D01*
X241600Y299769D01*
D02*
G37*
G36*
X213067Y300724D02*
X210657D01*
Y295421D01*
X213067D01*
Y300724D01*
D02*
G37*
G36*
X209657D02*
X207248D01*
Y295421D01*
X209657D01*
Y300724D01*
D02*
G37*
G36*
X231200Y296325D02*
Y294600D01*
X232925D01*
X232847Y294989D01*
X232343Y295743D01*
X231589Y296247D01*
X231200Y296325D01*
D02*
G37*
G36*
X230200D02*
X229811Y296247D01*
X229057Y295743D01*
X228553Y294989D01*
X228475Y294600D01*
X230200D01*
Y296325D01*
D02*
G37*
G36*
X232925Y293600D02*
X231200D01*
Y291875D01*
X231589Y291953D01*
X232343Y292457D01*
X232847Y293211D01*
X232925Y293600D01*
D02*
G37*
G36*
X230200D02*
X228475D01*
X228553Y293211D01*
X229057Y292457D01*
X229811Y291953D01*
X230200Y291875D01*
Y293600D01*
D02*
G37*
G36*
X222941Y293384D02*
Y291659D01*
X224666D01*
X224588Y292048D01*
X224084Y292802D01*
X223330Y293306D01*
X222941Y293384D01*
D02*
G37*
G36*
X221941D02*
X221552Y293306D01*
X220798Y292802D01*
X220294Y292048D01*
X220216Y291659D01*
X221941D01*
Y293384D01*
D02*
G37*
G36*
X312200Y290611D02*
Y288886D01*
X313925D01*
X313847Y289275D01*
X313343Y290029D01*
X312589Y290533D01*
X312200Y290611D01*
D02*
G37*
G36*
X304618Y291945D02*
X301166D01*
Y288886D01*
X304618D01*
Y291945D01*
D02*
G37*
G36*
X300410Y291748D02*
X296957D01*
Y288689D01*
X300410D01*
Y291748D01*
D02*
G37*
G36*
X291748D02*
X288295D01*
Y288689D01*
X291748D01*
Y291748D01*
D02*
G37*
G36*
X295957D02*
X292504D01*
Y288689D01*
X295957D01*
Y291748D01*
D02*
G37*
G36*
X287295D02*
X283842D01*
Y288689D01*
X287295D01*
Y291748D01*
D02*
G37*
G36*
X313925Y287886D02*
X312200D01*
Y286161D01*
X312589Y286239D01*
X313343Y286742D01*
X313847Y287496D01*
X313925Y287886D01*
D02*
G37*
G36*
X309071Y291945D02*
X305618D01*
Y288386D01*
Y284827D01*
X309071D01*
Y287250D01*
X309534Y287475D01*
X309571Y287469D01*
X310057Y286742D01*
X310811Y286239D01*
X311200Y286161D01*
Y288386D01*
Y290611D01*
X310811Y290533D01*
X310057Y290029D01*
X309571Y289302D01*
X309534Y289297D01*
X309071Y289522D01*
Y291945D01*
D02*
G37*
G36*
X304618Y287886D02*
X301166D01*
Y284827D01*
X304618D01*
Y287886D01*
D02*
G37*
G36*
X300410Y287689D02*
X296957D01*
Y284630D01*
X300410D01*
Y287689D01*
D02*
G37*
G36*
X295957D02*
X292504D01*
Y284630D01*
X295957D01*
Y287689D01*
D02*
G37*
G36*
X291748D02*
X288295D01*
Y284630D01*
X291748D01*
Y287689D01*
D02*
G37*
G36*
X287295D02*
X283842D01*
Y284630D01*
X287295D01*
Y287689D01*
D02*
G37*
G36*
X206118Y287024D02*
X203059D01*
Y283571D01*
X206118D01*
Y287024D01*
D02*
G37*
G36*
X198244D02*
X195185D01*
Y283571D01*
X198244D01*
Y287024D01*
D02*
G37*
G36*
X194185D02*
X191126D01*
Y283571D01*
X194185D01*
Y287024D01*
D02*
G37*
G36*
X202059D02*
X199000D01*
Y283571D01*
X202059D01*
Y287024D01*
D02*
G37*
G36*
X188700Y345115D02*
X187967Y344969D01*
X187346Y344554D01*
X186931Y343933D01*
X186785Y343200D01*
X186931Y342467D01*
X187346Y341846D01*
X187967Y341431D01*
X188700Y341285D01*
X188867Y341318D01*
X195602Y334584D01*
X195410Y334122D01*
X189658D01*
Y309028D01*
X199969D01*
Y295258D01*
X200061Y294794D01*
X200324Y294401D01*
X207641Y287084D01*
X207450Y286622D01*
X206882D01*
Y279520D01*
X213197D01*
Y286622D01*
X211208D01*
X211159Y286864D01*
X210897Y287257D01*
X209498Y288656D01*
X209657Y289042D01*
Y294421D01*
X207248D01*
Y291559D01*
X206786Y291368D01*
X202394Y295760D01*
Y309028D01*
X212705D01*
Y334122D01*
X199492D01*
X190582Y343033D01*
X190615Y343200D01*
X190469Y343933D01*
X190054Y344554D01*
X189433Y344969D01*
X188700Y345115D01*
D02*
G37*
G36*
X291354Y282693D02*
X288295D01*
Y279240D01*
X291354D01*
Y282693D01*
D02*
G37*
G36*
X313992D02*
X310933D01*
Y279240D01*
X313992D01*
Y282693D01*
D02*
G37*
G36*
X309933D02*
X306874D01*
Y279240D01*
X309933D01*
Y282693D01*
D02*
G37*
G36*
X287295D02*
X284236D01*
Y279240D01*
X287295D01*
Y282693D01*
D02*
G37*
G36*
X206118Y282571D02*
X203059D01*
Y279118D01*
X206118D01*
Y282571D01*
D02*
G37*
G36*
X202059D02*
X199000D01*
Y279118D01*
X202059D01*
Y282571D01*
D02*
G37*
G36*
X198244D02*
X195185D01*
Y279118D01*
X198244D01*
Y282571D01*
D02*
G37*
G36*
X194185D02*
X191126D01*
Y279118D01*
X194185D01*
Y282571D01*
D02*
G37*
G36*
X313992Y278240D02*
X310933D01*
Y274787D01*
X313992D01*
Y278240D01*
D02*
G37*
G36*
X309933D02*
X306874D01*
Y274787D01*
X309933D01*
Y278240D01*
D02*
G37*
%LPD*%
G36*
X309388Y409904D02*
Y391400D01*
X309480Y390936D01*
X309743Y390543D01*
X323488Y376798D01*
Y367209D01*
X322988Y366939D01*
X322562Y367115D01*
X321890Y367203D01*
X320815D01*
Y364606D01*
X319815D01*
Y367203D01*
X318740D01*
X318068Y367115D01*
X317442Y366856D01*
X316904Y366443D01*
X316875Y366405D01*
X316375Y366575D01*
Y376862D01*
X316282Y377326D01*
X316020Y377720D01*
X308497Y385242D01*
X308103Y385505D01*
X307998Y385761D01*
X308269Y386167D01*
X308415Y386900D01*
X308269Y387633D01*
X307854Y388254D01*
X307712Y388349D01*
Y403700D01*
X307620Y404164D01*
X307357Y404557D01*
X305543Y406371D01*
Y409168D01*
X306043Y409414D01*
X306467Y409131D01*
X307200Y408985D01*
X307933Y409131D01*
X308554Y409546D01*
X308888Y410046D01*
X309388Y409904D01*
D02*
G37*
G36*
X297390Y395946D02*
X298465D01*
X299137Y396035D01*
X299588Y396222D01*
X300088Y395966D01*
Y394902D01*
X296995Y391809D01*
X296732Y391416D01*
X296639Y390952D01*
Y379302D01*
X296274Y378937D01*
X296011Y378543D01*
X295919Y378080D01*
Y374400D01*
X296011Y373936D01*
X296274Y373543D01*
X301874Y367943D01*
X302268Y367680D01*
X302731Y367588D01*
X307298D01*
X312678Y362208D01*
Y354225D01*
X312770Y353762D01*
X313033Y353368D01*
X313367Y353034D01*
Y351000D01*
X307193D01*
Y347441D01*
X306693D01*
Y346941D01*
X299000D01*
Y344812D01*
X296900D01*
X296436Y344720D01*
X296043Y344457D01*
X291098Y339512D01*
X277686D01*
X277465Y340012D01*
X277769Y340467D01*
X277915Y341200D01*
X277769Y341933D01*
X277354Y342554D01*
X277045Y342760D01*
X277197Y343260D01*
X278838D01*
X279459Y343384D01*
X279985Y343735D01*
X280337Y344261D01*
X280460Y344882D01*
Y344972D01*
X277008D01*
Y345472D01*
X276508D01*
Y347685D01*
X275177D01*
X274556Y347561D01*
X274512Y347532D01*
X274012Y347799D01*
Y350400D01*
X273920Y350864D01*
X273657Y351257D01*
X271357Y353557D01*
X270964Y353820D01*
X270500Y353912D01*
X268028D01*
X267793Y354353D01*
X267869Y354467D01*
X268015Y355200D01*
X267869Y355933D01*
X267454Y356554D01*
X266833Y356969D01*
X266100Y357115D01*
X265933Y357082D01*
X265472Y357542D01*
X265664Y358004D01*
X266307D01*
Y359201D01*
X266700D01*
X267164Y359293D01*
X267209Y359323D01*
X267709Y359056D01*
Y358063D01*
X270256D01*
X270403Y357844D01*
X274130Y354116D01*
X274057Y354007D01*
X273965Y353543D01*
Y352362D01*
X274057Y351898D01*
X274320Y351505D01*
X274713Y351242D01*
X275177Y351150D01*
X278838D01*
X279302Y351242D01*
X279696Y351505D01*
X279959Y351898D01*
X280051Y352362D01*
Y353543D01*
X279959Y354007D01*
X279696Y354401D01*
X279302Y354663D01*
X278838Y354756D01*
X276919D01*
X274074Y357601D01*
X274265Y358063D01*
X274811D01*
Y364378D01*
X267709D01*
Y362433D01*
X267507D01*
X267043Y362340D01*
X266807Y362183D01*
X266307Y362396D01*
Y362823D01*
X259677D01*
Y361626D01*
X258433D01*
Y362823D01*
X251803D01*
Y358004D01*
X252836D01*
X253028Y357542D01*
X252686Y357201D01*
X252423Y356807D01*
X252355Y356465D01*
X251134D01*
Y349835D01*
X252331D01*
Y348591D01*
X251134D01*
Y346488D01*
X246661D01*
Y348827D01*
X244716D01*
Y349151D01*
X244624Y349615D01*
X244361Y350008D01*
X235482Y358888D01*
X235515Y359055D01*
X235369Y359788D01*
X234954Y360409D01*
X234333Y360824D01*
X233600Y360970D01*
X232867Y360824D01*
X232246Y360409D01*
X231831Y359788D01*
X231685Y359055D01*
X231831Y358323D01*
X232246Y357701D01*
X232867Y357286D01*
X233600Y357140D01*
X233767Y357174D01*
X241652Y349289D01*
X241461Y348827D01*
X240347D01*
Y341724D01*
X246661D01*
Y344063D01*
X251134D01*
Y343400D01*
X248316Y340582D01*
X248053Y340188D01*
X247961Y339724D01*
Y332882D01*
X240937D01*
Y334291D01*
X240844Y334755D01*
X240582Y335149D01*
X234869Y340861D01*
X235061Y341323D01*
X235524D01*
Y344776D01*
X232465D01*
Y343919D01*
X232003Y343727D01*
X218141Y357589D01*
Y381781D01*
X224912Y388551D01*
X234637D01*
X234761Y388052D01*
X234482Y387865D01*
X229874Y383257D01*
X229611Y382864D01*
X229519Y382400D01*
Y379106D01*
X229611Y378642D01*
X229874Y378248D01*
X241047Y367076D01*
X241440Y366813D01*
X241904Y366721D01*
X251803D01*
Y365524D01*
X258433D01*
Y370342D01*
X251803D01*
Y369145D01*
X242406D01*
X233514Y378038D01*
X233678Y378580D01*
X233933Y378631D01*
X234554Y379046D01*
X234969Y379667D01*
X235115Y380400D01*
X235082Y380567D01*
X237902Y383388D01*
X255355D01*
X255591Y382947D01*
X255553Y382889D01*
X255475Y382500D01*
X257700D01*
Y382000D01*
X258200D01*
Y379775D01*
X258589Y379853D01*
X259343Y380357D01*
X259847Y381111D01*
X259950Y381628D01*
X260493Y381793D01*
X267419Y374867D01*
X267385Y374700D01*
X267531Y373967D01*
X267946Y373346D01*
X268567Y372931D01*
X269300Y372785D01*
X270033Y372931D01*
X270654Y373346D01*
X271069Y373967D01*
X271215Y374700D01*
X271069Y375433D01*
X270654Y376054D01*
X270033Y376469D01*
X269300Y376615D01*
X269133Y376582D01*
X260419Y385296D01*
X260626Y385796D01*
X279685D01*
X280149Y385888D01*
X280542Y386151D01*
X283534Y389143D01*
X283797Y389536D01*
X283890Y390000D01*
X284388Y389996D01*
Y379802D01*
X281267Y376681D01*
X281100Y376715D01*
X280367Y376569D01*
X279746Y376154D01*
X279331Y375533D01*
X279185Y374800D01*
X279331Y374067D01*
X279746Y373446D01*
X280367Y373031D01*
X281100Y372885D01*
X281833Y373031D01*
X282454Y373446D01*
X282869Y374067D01*
X283015Y374800D01*
X282981Y374967D01*
X285726Y377711D01*
X286188Y377520D01*
Y374887D01*
X286100Y374815D01*
X285367Y374669D01*
X284746Y374254D01*
X284331Y373633D01*
X284185Y372900D01*
X284256Y372545D01*
X283803Y372260D01*
X283473Y372260D01*
X280421D01*
Y369201D01*
X283874D01*
Y371789D01*
X283874Y371803D01*
X283874Y371803D01*
X283874Y372020D01*
X284123Y372100D01*
X284374Y372103D01*
X284409Y372050D01*
X284746Y371546D01*
X285367Y371131D01*
X285688Y371067D01*
Y364549D01*
X285546Y364454D01*
X285131Y363833D01*
X284985Y363100D01*
X285131Y362367D01*
X285546Y361746D01*
X286167Y361331D01*
X286900Y361185D01*
X287633Y361331D01*
X288254Y361746D01*
X288889Y361797D01*
X291443Y359243D01*
X291836Y358980D01*
X292300Y358888D01*
X295976D01*
Y353512D01*
X288502D01*
X283472Y358542D01*
Y364378D01*
X276370D01*
Y358063D01*
X280523D01*
X287143Y351443D01*
X287536Y351180D01*
X288000Y351088D01*
X289598D01*
X291119Y349567D01*
X291085Y349400D01*
X291231Y348667D01*
X291646Y348046D01*
X292267Y347631D01*
X293000Y347485D01*
X293733Y347631D01*
X294354Y348046D01*
X294769Y348667D01*
X294915Y349400D01*
X294769Y350133D01*
X294465Y350588D01*
X294686Y351088D01*
X298536D01*
X299000Y351000D01*
Y347941D01*
X306193D01*
Y351000D01*
X302495D01*
X302361Y351249D01*
X302295Y351500D01*
X302520Y351836D01*
X302612Y352300D01*
Y352540D01*
X303095Y352583D01*
Y352583D01*
X305406D01*
Y356299D01*
X305906D01*
Y356799D01*
X308717D01*
Y360016D01*
X307823D01*
X307438Y360516D01*
X307515Y360900D01*
X307369Y361633D01*
X306954Y362254D01*
X306333Y362669D01*
X305600Y362815D01*
X304867Y362669D01*
X304246Y362254D01*
X304151Y362112D01*
X303900D01*
X303436Y362020D01*
X303043Y361757D01*
X301170Y359885D01*
X300795Y359614D01*
Y359614D01*
X300795Y359614D01*
X298847D01*
X298666Y360379D01*
X298625Y360468D01*
X298606Y360564D01*
X298528Y360681D01*
X298469Y360809D01*
X298397Y360876D01*
X298343Y360957D01*
X298226Y361036D01*
X298123Y361132D01*
X298031Y361166D01*
X297950Y361220D01*
X297812Y361247D01*
X297679Y361297D01*
X297582Y361293D01*
X297486Y361312D01*
X292802D01*
X290612Y363502D01*
Y366168D01*
X291053Y366404D01*
X291217Y366295D01*
X291969Y366145D01*
X292237Y366199D01*
X292344Y366160D01*
X292749Y365791D01*
X292807Y365352D01*
X293066Y364725D01*
X293479Y364187D01*
X294017Y363775D01*
X294643Y363515D01*
X295315Y363427D01*
X296390D01*
Y366024D01*
Y368621D01*
X295315D01*
X294643Y368532D01*
X294381Y368424D01*
X293812Y368722D01*
X293784Y368862D01*
X293358Y369500D01*
X292721Y369926D01*
X291969Y370075D01*
X291217Y369926D01*
X291053Y369817D01*
X290612Y370052D01*
Y373498D01*
X292533Y375418D01*
X292700Y375385D01*
X293433Y375531D01*
X294054Y375946D01*
X294469Y376567D01*
X294615Y377300D01*
X294469Y378033D01*
X294054Y378654D01*
X293433Y379069D01*
X292700Y379215D01*
X291967Y379069D01*
X291346Y378654D01*
X290931Y378033D01*
X290785Y377300D01*
X290819Y377133D01*
X289074Y375389D01*
X288612Y375580D01*
Y379998D01*
X292933Y384318D01*
X293100Y384285D01*
X293833Y384431D01*
X294454Y384846D01*
X294869Y385467D01*
X295015Y386200D01*
X294869Y386933D01*
X294454Y387554D01*
X293833Y387969D01*
X293100Y388115D01*
X292367Y387969D01*
X291746Y387554D01*
X291331Y386933D01*
X291185Y386200D01*
X291218Y386033D01*
X287274Y382089D01*
X286812Y382280D01*
Y393098D01*
X289698Y395984D01*
X290177Y395839D01*
X290200Y395724D01*
X290615Y395103D01*
X291236Y394688D01*
X291969Y394542D01*
X292701Y394688D01*
X293322Y395103D01*
X293738Y395724D01*
X293770Y395887D01*
X294335Y396163D01*
X294643Y396035D01*
X295315Y395946D01*
X296390D01*
Y398543D01*
X297390D01*
Y395946D01*
D02*
G37*
G36*
X308153Y337888D02*
X307983Y337633D01*
X307837Y336900D01*
X307870Y336733D01*
X305843Y334705D01*
X305580Y334312D01*
X305488Y333848D01*
Y316347D01*
X299402D01*
Y310032D01*
X299014Y309760D01*
X291900D01*
X291436Y309668D01*
X291043Y309405D01*
X287180Y305543D01*
X283555D01*
X283348Y306043D01*
X291939Y314634D01*
X294024D01*
X294118Y314493D01*
X294740Y314077D01*
X295472Y313932D01*
X296205Y314077D01*
X296826Y314493D01*
X297241Y315114D01*
X297387Y315846D01*
X297241Y316579D01*
X296826Y317200D01*
X296205Y317616D01*
X295472Y317761D01*
X294740Y317616D01*
X294118Y317200D01*
X294024Y317059D01*
X291437D01*
X290973Y316966D01*
X290580Y316704D01*
X281781Y307905D01*
X270975D01*
X267393Y311486D01*
Y319874D01*
X268370D01*
Y319473D01*
X269461D01*
Y326378D01*
Y333283D01*
X269283D01*
Y333869D01*
X272502Y337088D01*
X276127D01*
X276177Y336588D01*
X275836Y336520D01*
X275443Y336257D01*
X274443Y335257D01*
X274180Y334864D01*
X274088Y334400D01*
Y322849D01*
X273946Y322754D01*
X273531Y322133D01*
X273385Y321400D01*
X273531Y320667D01*
X273848Y320193D01*
X273643Y319693D01*
X272512D01*
Y311409D01*
X281583D01*
Y312724D01*
X281677Y312774D01*
X282083Y312938D01*
X282400Y312875D01*
Y315100D01*
Y317325D01*
X282083Y317262D01*
X281677Y317426D01*
X281583Y317476D01*
Y319693D01*
X276957D01*
X276752Y320193D01*
X277069Y320667D01*
X277215Y321400D01*
X277069Y322133D01*
X276654Y322754D01*
X276512Y322849D01*
Y324567D01*
X277012Y324835D01*
X277167Y324731D01*
X277900Y324585D01*
X278067Y324619D01*
X282480Y320206D01*
X282873Y319943D01*
X283337Y319851D01*
X295500D01*
X295595Y319709D01*
X296216Y319294D01*
X296949Y319148D01*
X297682Y319294D01*
X298303Y319709D01*
X298718Y320330D01*
X298864Y321063D01*
X298718Y321796D01*
X298303Y322417D01*
X297682Y322832D01*
X296949Y322978D01*
X296216Y322832D01*
X295595Y322417D01*
X295500Y322275D01*
X283839D01*
X279782Y326333D01*
X279815Y326500D01*
X279669Y327233D01*
X279254Y327854D01*
X278633Y328269D01*
X277900Y328415D01*
X277167Y328269D01*
X277012Y328165D01*
X276512Y328433D01*
Y330634D01*
X277012Y330901D01*
X277267Y330731D01*
X278000Y330585D01*
X278733Y330731D01*
X279354Y331146D01*
X279449Y331288D01*
X299429D01*
X299893Y331380D01*
X300286Y331643D01*
X307031Y338388D01*
X307886D01*
X308153Y337888D01*
D02*
G37*
%LPC*%
G36*
X257200Y381500D02*
X255475D01*
X255553Y381111D01*
X256057Y380357D01*
X256811Y379853D01*
X257200Y379775D01*
Y381500D01*
D02*
G37*
G36*
X275213Y372260D02*
X271760D01*
Y369201D01*
X275213D01*
Y372260D01*
D02*
G37*
G36*
X270760D02*
X267307D01*
Y369201D01*
X270760D01*
Y372260D01*
D02*
G37*
G36*
X279421D02*
X275968D01*
Y369201D01*
X279421D01*
Y372260D01*
D02*
G37*
G36*
X266709Y370744D02*
X263492D01*
Y368433D01*
X266709D01*
Y370744D01*
D02*
G37*
G36*
X262492D02*
X259276D01*
Y368433D01*
X262492D01*
Y370744D01*
D02*
G37*
G36*
X298465Y368621D02*
X297390D01*
Y366524D01*
X300996D01*
X300973Y366696D01*
X300714Y367322D01*
X300301Y367860D01*
X299763Y368273D01*
X299137Y368532D01*
X298465Y368621D01*
D02*
G37*
G36*
X283874Y368201D02*
X280421D01*
Y365142D01*
X283874D01*
Y368201D01*
D02*
G37*
G36*
X279421D02*
X275968D01*
Y365142D01*
X279421D01*
Y368201D01*
D02*
G37*
G36*
X275213D02*
X271760D01*
Y365142D01*
X275213D01*
Y368201D01*
D02*
G37*
G36*
X270760D02*
X267307D01*
Y365142D01*
X270760D01*
Y368201D01*
D02*
G37*
G36*
X266709Y367433D02*
X263492D01*
Y365122D01*
X266709D01*
Y367433D01*
D02*
G37*
G36*
X262492D02*
X259276D01*
Y365122D01*
X262492D01*
Y367433D01*
D02*
G37*
G36*
X300996Y365524D02*
X297390D01*
Y363427D01*
X298465D01*
X299137Y363515D01*
X299763Y363775D01*
X300301Y364187D01*
X300714Y364725D01*
X300973Y365352D01*
X300996Y365524D01*
D02*
G37*
G36*
X308717Y355799D02*
X306406D01*
Y352583D01*
X308717D01*
Y355799D01*
D02*
G37*
G36*
X278838Y347685D02*
X277508D01*
Y345972D01*
X280460D01*
Y346063D01*
X280337Y346684D01*
X279985Y347210D01*
X279459Y347561D01*
X278838Y347685D01*
D02*
G37*
G36*
X239583Y349228D02*
X236524D01*
Y345776D01*
X239583D01*
Y349228D01*
D02*
G37*
G36*
X235524D02*
X232465D01*
Y345776D01*
X235524D01*
Y349228D01*
D02*
G37*
G36*
X239583Y344776D02*
X236524D01*
Y341323D01*
X239583D01*
Y344776D01*
D02*
G37*
G36*
X271551Y333283D02*
X270461D01*
Y326878D01*
X271551D01*
Y333283D01*
D02*
G37*
G36*
Y325878D02*
X270461D01*
Y319473D01*
X271551D01*
Y325878D01*
D02*
G37*
G36*
X283400Y317325D02*
Y315600D01*
X285125D01*
X285047Y315989D01*
X284543Y316743D01*
X283789Y317247D01*
X283400Y317325D01*
D02*
G37*
G36*
X285125Y314600D02*
X283400D01*
Y312875D01*
X283789Y312953D01*
X284543Y313457D01*
X285047Y314211D01*
X285125Y314600D01*
D02*
G37*
%LPD*%
D13*
X322047Y406870D02*
D03*
Y414390D02*
D03*
Y428169D02*
D03*
Y420650D02*
D03*
X262992Y360413D02*
D03*
Y367933D02*
D03*
X255118D02*
D03*
Y360413D02*
D03*
X322047Y441732D02*
D03*
Y434213D02*
D03*
D14*
X297854Y448032D02*
D03*
X290335D02*
D03*
X304114D02*
D03*
X311634D02*
D03*
X253543Y345276D02*
D03*
X261063D02*
D03*
X253543Y353150D02*
D03*
X261063D02*
D03*
X305906Y356299D02*
D03*
X298386D02*
D03*
D17*
X279921Y368701D02*
D03*
Y361220D02*
D03*
X271260Y368701D02*
D03*
Y361220D02*
D03*
X264173Y404921D02*
D03*
Y397441D02*
D03*
X255512Y405118D02*
D03*
Y397638D02*
D03*
X305118Y295866D02*
D03*
Y288386D02*
D03*
X296457Y295669D02*
D03*
Y288189D02*
D03*
X287795Y295669D02*
D03*
Y288189D02*
D03*
D44*
X297922Y306768D02*
X300288Y304403D01*
X295468Y306768D02*
X297922D01*
X290275Y301575D02*
X295468Y306768D01*
X300288Y304402D02*
Y304403D01*
X296457Y303857D02*
X296900Y304300D01*
X296457Y295669D02*
Y303857D01*
X291900Y308548D02*
X313148D01*
X315000Y310400D01*
Y337100D01*
X287683Y304331D02*
X291900Y308548D01*
X282283Y306693D02*
X291437Y315846D01*
X295472D01*
X270472Y306693D02*
X282283D01*
X277900Y326500D02*
X283337Y321063D01*
X296949D01*
X308900Y374100D02*
X312400D01*
X315162Y364038D02*
Y376862D01*
X302100Y380900D02*
X308900Y374100D01*
X315162Y364038D02*
X321618Y357582D01*
X307640Y384385D02*
X315162Y376862D01*
X304800Y384385D02*
X307640D01*
X320000Y410900D02*
Y414390D01*
X280300Y440100D02*
X283500Y443300D01*
X270200Y440100D02*
X280300D01*
X268900Y441400D02*
X270200Y440100D01*
X285173Y446457D02*
X285700D01*
X288031Y444126D01*
X287400Y380500D02*
X293100Y386200D01*
X287400Y374200D02*
Y380500D01*
X295352Y387439D02*
Y406652D01*
Y387439D02*
X295568Y387223D01*
Y385177D02*
Y387223D01*
X295352Y384961D02*
X295568Y385177D01*
X295352Y373016D02*
Y384961D01*
Y373016D02*
X296890Y371478D01*
X299631Y386631D02*
X301100Y388100D01*
X299631Y377031D02*
Y386631D01*
X304000Y385185D02*
Y403683D01*
Y385185D02*
X304800Y384385D01*
X301031Y406652D02*
X304000Y403683D01*
X274409Y397638D02*
X276772Y400000D01*
X274409Y395669D02*
Y397638D01*
X324700Y394700D02*
Y406870D01*
X319000Y389000D02*
X324700Y394700D01*
X322047Y406870D02*
X324700D01*
X308069Y358425D02*
Y362500D01*
X305906Y358425D02*
X308069D01*
X262992Y367933D02*
X266700D01*
X267468Y368701D01*
X182618Y342400D02*
X186061Y345843D01*
X187402Y309798D02*
X196063Y301137D01*
Y283071D02*
Y301137D01*
X194685Y283071D02*
X202559D01*
X184035Y338800D02*
X187402Y335433D01*
Y309798D02*
Y335433D01*
X182618Y338800D02*
X184035D01*
X304921Y288189D02*
X305118Y288386D01*
X296457Y288189D02*
X304921D01*
X296654Y295866D02*
X305118D01*
X296457Y295669D02*
X296654Y295866D01*
X283875Y301575D02*
X290275D01*
X278346Y296046D02*
X283875Y301575D01*
X311634Y447300D02*
X315100D01*
X306529Y339600D02*
X321425D01*
X299429Y332500D02*
X306529Y339600D01*
X278000Y332500D02*
X299429D01*
X277008Y345472D02*
X279772D01*
X280700Y346400D01*
X275172Y345472D02*
X277008D01*
X273795Y344094D02*
X275172Y345472D01*
X266356Y344094D02*
X273795D01*
X256732Y334470D02*
X266356Y344094D01*
X261063Y352700D02*
X270500D01*
X261063Y346457D02*
X272057D01*
X272800Y347200D01*
X261063Y345276D02*
Y346457D01*
Y342220D02*
Y345276D01*
X254843Y336000D02*
X261063Y342220D01*
X257000Y342523D02*
Y348000D01*
X252953Y338476D02*
X257000Y342523D01*
X252953Y326378D02*
Y338476D01*
X253543Y344095D02*
Y345276D01*
X249173Y339724D02*
X253543Y344095D01*
X249173Y326378D02*
Y339724D01*
X216929Y357087D02*
X239724Y334291D01*
X216929Y357087D02*
Y382283D01*
X239724Y326378D02*
Y334291D01*
X237835Y326378D02*
Y332666D01*
X212598Y357902D02*
X237835Y332666D01*
X212598Y357902D02*
Y383858D01*
X221440Y392700D02*
X265000D01*
X212598Y383858D02*
X221440Y392700D01*
X224410Y389764D02*
X278864D01*
X216929Y382283D02*
X224410Y389764D01*
X218504Y397638D02*
X255512D01*
X182618Y361752D02*
X218504Y397638D01*
X182618Y342400D02*
Y361752D01*
X288000Y352300D02*
X290100D01*
X279921Y360379D02*
X288000Y352300D01*
X279207Y356693D02*
X280700Y355200D01*
X277007Y356693D02*
X279207D01*
X275500Y358200D02*
X277007Y356693D01*
X247015Y315145D02*
X249145D01*
X243614Y318546D02*
X247015Y315145D01*
X243504Y326378D02*
X243614Y326268D01*
Y318546D02*
Y326268D01*
X282900Y311246D02*
Y315100D01*
X281102Y309449D02*
X282900Y311246D01*
X271654Y309449D02*
X281102D01*
X269961Y311142D02*
X271654Y309449D01*
X269961Y311142D02*
Y326378D01*
X266181Y310984D02*
X270472Y306693D01*
X266181Y310984D02*
Y326378D01*
X281102Y304331D02*
X287683D01*
X279528Y302756D02*
X281102Y304331D01*
X286300Y373100D02*
X286900Y372500D01*
X264879Y306900D02*
X269023Y302756D01*
X279528D01*
X238603Y306900D02*
X264879D01*
X281496Y292365D02*
X284800Y295669D01*
X281496Y277704D02*
Y292365D01*
Y277704D02*
X284700Y274500D01*
X278346Y280346D02*
Y296046D01*
X275500Y277500D02*
X278346Y280346D01*
X273500Y280000D02*
Y283980D01*
X254080Y303400D02*
X273500Y283980D01*
X235000Y303400D02*
X254080D01*
X232800Y277931D02*
X236705Y281836D01*
Y287705D01*
X246400Y297400D01*
X262624Y429724D02*
X270624D01*
X295500Y407300D02*
Y436657D01*
X288031Y444126D02*
X295500Y436657D01*
X288031Y444126D02*
X288031D01*
X279407Y434131D02*
X286971Y441695D01*
X249226Y434131D02*
X279407D01*
X300482Y341820D02*
X319211D01*
X294061Y335400D02*
X300482Y341820D01*
X276300Y335400D02*
X294061D01*
X279772Y345472D02*
X294031D01*
X296000Y347441D01*
X227165Y432865D02*
X230700Y436400D01*
X227165Y422735D02*
Y432865D01*
Y422735D02*
X232300Y417600D01*
X298000Y403317D02*
Y441500D01*
Y403317D02*
X301300Y400017D01*
X301031Y406652D02*
Y443923D01*
X297854Y447100D02*
X301031Y443923D01*
X303500Y441300D02*
X304331Y440469D01*
Y405869D02*
Y440469D01*
Y405869D02*
X306500Y403700D01*
X295352Y406652D02*
X296000Y407300D01*
X279685Y387008D02*
X282677Y390000D01*
X235339Y387008D02*
X279685D01*
X230731Y382400D02*
X235339Y387008D01*
X278864Y389764D02*
X280300Y391200D01*
X237400Y384600D02*
X259400D01*
X233200Y380400D02*
X237400Y384600D01*
X209382Y345718D02*
X228722Y326378D01*
X191343Y345718D02*
X209382D01*
X186061Y345843D02*
X192913D01*
X253543Y345276D02*
Y353150D01*
X255118Y360413D02*
X262992D01*
X271260Y368701D02*
X279921D01*
X290100Y352300D02*
X301400D01*
X296400Y398543D02*
X296890D01*
X239255Y311600D02*
X256622D01*
X234055Y316800D02*
X239255Y311600D01*
X234055Y318345D02*
Y326378D01*
Y316800D02*
Y318345D01*
Y307392D02*
Y316800D01*
X210157Y290843D02*
Y294900D01*
X182618Y338800D02*
Y342400D01*
X210157Y294900D02*
X218700D01*
X221563D02*
X229900D01*
X218700D02*
X221563D01*
X306700Y313189D02*
Y333848D01*
X256693Y429724D02*
X262624D01*
X263500Y422047D02*
Y425600D01*
X264173Y408000D02*
Y408800D01*
Y404921D02*
Y408000D01*
X319921Y420650D02*
Y423679D01*
X286300Y373100D02*
X287400Y374200D01*
X286100Y372900D02*
X286300Y373100D01*
X192205Y291400D02*
Y294900D01*
X188518D02*
X192205D01*
X290100Y352300D02*
X293000Y349400D01*
X279921Y360379D02*
Y361220D01*
X301400Y352300D02*
Y358400D01*
X303900Y360900D01*
X305600D01*
X233600Y359055D02*
X243504Y349151D01*
Y345276D02*
Y349151D01*
X182618Y338780D02*
Y338800D01*
X236024Y345276D02*
Y352551D01*
X231055Y357520D02*
X236024Y352551D01*
X231055Y357520D02*
Y360623D01*
X235231Y364800D01*
X259700D01*
X260500Y367933D01*
X262992D01*
X270624Y429724D02*
X272500Y431600D01*
X281100Y374800D02*
X285600Y379300D01*
Y393600D01*
X292500Y400500D01*
Y413700D01*
X283200Y423000D02*
X292500Y413700D01*
X270675Y423000D02*
X283200D01*
X282677Y390000D02*
Y395669D01*
X230731Y379106D02*
Y382400D01*
Y379106D02*
X241904Y367933D01*
X255118D01*
X232346Y288600D02*
X241600Y297854D01*
X216500Y288600D02*
X232346D01*
X214900Y290200D02*
X216500Y288600D01*
X289400Y374000D02*
X292700Y377300D01*
X289400Y363000D02*
Y374000D01*
Y363000D02*
X292300Y360100D01*
X297486D01*
X298386Y356299D01*
X240900Y431700D02*
Y439800D01*
X317800Y430500D02*
X318769D01*
X321100Y428169D01*
X322047D01*
X316359Y348641D02*
Y356600D01*
Y348641D02*
X319100Y345900D01*
X260512Y326378D02*
Y334723D01*
X321425Y339600D02*
X324700Y342875D01*
Y377300D01*
X310600Y391400D02*
X324700Y377300D01*
X310600Y391400D02*
Y436700D01*
X315100Y447300D02*
X317689Y444711D01*
X311634Y447300D02*
Y448032D01*
X260512Y334723D02*
X266988Y341200D01*
X276000D01*
X297854Y447100D02*
Y448032D01*
X321618Y344227D02*
Y357582D01*
X319211Y341820D02*
X321618Y344227D01*
X275300Y334400D02*
X276300Y335400D01*
X275300Y321400D02*
Y334400D01*
X262402Y312793D02*
Y326378D01*
X260205Y310597D02*
X262402Y312793D01*
X241614Y315186D02*
Y326378D01*
Y315186D02*
X242600Y314200D01*
X245394Y319283D02*
Y326378D01*
Y319283D02*
X248505D01*
X253288Y314500D01*
X255400D01*
X283000Y404300D02*
X290000D01*
X280300Y401600D02*
X283000Y404300D01*
X280300Y391200D02*
Y401600D01*
X236495Y421400D02*
X249226Y434131D01*
X233200Y421400D02*
X236495D01*
X259400Y384600D02*
X269300Y374700D01*
X264291Y326378D02*
Y334391D01*
X227500Y280300D02*
X229869Y277931D01*
X232800D01*
X246400Y297400D02*
X252100D01*
X272000Y277500D01*
X275500D01*
X286900Y363100D02*
Y372500D01*
X187205Y280000D02*
Y283071D01*
Y280000D02*
X191053Y276152D01*
X245352D01*
X246900Y277700D01*
X187205Y286400D02*
X192205Y291400D01*
X187205Y283071D02*
Y286400D01*
X229038Y282962D02*
X231600Y280400D01*
X218038Y282962D02*
X229038D01*
X210157Y290843D02*
X218038Y282962D01*
X251000Y274400D02*
Y294900D01*
X306500Y386900D02*
Y403700D01*
X221563Y294900D02*
X234055Y307392D01*
Y318345D02*
X239700Y312700D01*
X232300Y417600D02*
X246300D01*
X248900Y420200D01*
X274928Y447638D02*
X278346D01*
X274928Y443109D02*
Y447638D01*
X262624Y429724D02*
X264400Y431500D01*
X306693Y313189D02*
X306700D01*
Y333848D02*
X309752Y336900D01*
X320000Y414390D02*
X322047D01*
X304114Y445264D02*
Y448032D01*
Y445264D02*
X306279Y443100D01*
X266331Y424900D02*
X267200D01*
X265431Y424000D02*
X266331Y424900D01*
X265431Y410057D02*
Y424000D01*
X264173Y408800D02*
X265431Y410057D01*
X292200Y443700D02*
Y445235D01*
X290335Y447100D02*
X292200Y445235D01*
X290335Y447100D02*
Y448032D01*
X263189Y443200D02*
Y447638D01*
Y443200D02*
X264989Y441400D01*
X268900D01*
X256693Y439567D02*
X266733D01*
X269700Y436600D01*
X201181Y295258D02*
Y321575D01*
Y295258D02*
X210039Y286400D01*
Y283071D02*
Y286400D01*
X268071Y326378D02*
Y334371D01*
X272000Y338300D01*
X291600D01*
X296900Y343600D01*
X314579D01*
Y353536D01*
X313890Y354225D02*
X314579Y353536D01*
X313890Y354225D02*
Y362710D01*
X307800Y368800D02*
X313890Y362710D01*
X302731Y368800D02*
X307800D01*
X297131Y374400D02*
X302731Y368800D01*
X297131Y374400D02*
Y378080D01*
X297852Y378800D01*
Y390952D01*
X301300Y394400D01*
Y400017D01*
X313500Y441732D02*
X322047D01*
X256622Y311600D02*
X258622Y313600D01*
Y326378D01*
X299600Y377000D02*
X299631Y377031D01*
X307200Y410900D02*
Y437900D01*
X229900Y294900D02*
X230700Y294100D01*
X210157Y294900D02*
Y294921D01*
X256732Y326378D02*
Y334470D01*
X188700Y343200D02*
X201181Y330719D01*
Y321575D02*
Y330719D01*
X228722Y326378D02*
X234055D01*
X218700Y294900D02*
X222441Y291159D01*
X316400Y434213D02*
X322047D01*
X319921Y420650D02*
X322047D01*
X319500Y424100D02*
X319921Y423679D01*
X315300Y433113D02*
X316400Y434213D01*
X315300Y420300D02*
Y433113D01*
Y420300D02*
X317500Y418100D01*
X305118Y288386D02*
X311700D01*
X272328Y427369D02*
X272930Y427970D01*
X265269Y427369D02*
X272328D01*
X263500Y425600D02*
X265269Y427369D01*
X261220Y422047D02*
X263500D01*
X296000Y347441D02*
X306693D01*
X272800Y347200D02*
Y350400D01*
X270500Y352700D02*
X272800Y350400D01*
X261063Y352700D02*
Y353150D01*
X254843Y326378D02*
Y336000D01*
X258213Y349213D02*
X268661D01*
X257000Y348000D02*
X258213Y349213D01*
X296890Y366024D02*
Y371478D01*
X295276Y275376D02*
Y278740D01*
X294400Y274500D02*
X295276Y275376D01*
X284700Y274500D02*
X294400D01*
X284800Y295669D02*
X287795D01*
X262992Y367933D02*
Y376708D01*
X257700Y382000D02*
X262992Y376708D01*
X264100Y357200D02*
X266100Y355200D01*
X254400Y357200D02*
X264100D01*
X253543Y356343D02*
X254400Y357200D01*
X253543Y353150D02*
Y356343D01*
X305906Y356299D02*
Y358425D01*
X304545Y366024D02*
X308069Y362500D01*
X296890Y366024D02*
X304545D01*
X280700Y346400D02*
Y355200D01*
X275500Y358200D02*
Y364000D01*
X276500Y365000D01*
X279921D01*
Y368701D01*
X263273Y408900D02*
X264173Y408000D01*
X258400Y408900D02*
X263273D01*
X257600Y409700D02*
X258400Y408900D01*
X257600Y409700D02*
Y413386D01*
X254528D02*
X257600D01*
X261220Y419020D02*
Y422047D01*
X260000Y417800D02*
X261220Y419020D01*
X251900Y417800D02*
X260000D01*
X250900Y416800D02*
X251900Y417800D01*
X250900Y406218D02*
Y416800D01*
Y406218D02*
X252000Y405118D01*
X255512D01*
X182618Y300800D02*
Y332087D01*
Y300800D02*
X188518Y294900D01*
X192205D02*
Y294921D01*
X271260Y358701D02*
Y361220D01*
Y358701D02*
X277008Y352953D01*
X251063Y320000D02*
Y326378D01*
Y320000D02*
X251863Y319200D01*
X255932D01*
X256732Y320000D01*
Y326378D01*
X247283D02*
X249173D01*
X243504Y345276D02*
X253543D01*
X295276Y278740D02*
X302953D01*
X287795Y295669D02*
X296457D01*
X305118Y286215D02*
Y288386D01*
Y286215D02*
X310433Y280900D01*
Y278740D02*
Y280900D01*
X287795Y278740D02*
Y288189D01*
X296457D01*
X263189Y447638D02*
X270866D01*
X256732Y326378D02*
X258622D01*
X305906Y352187D02*
Y356299D01*
Y352187D02*
X306693Y351400D01*
Y347441D02*
Y351400D01*
X259897Y397441D02*
X264173D01*
X259700Y397638D02*
X259897Y397441D01*
X255512Y397638D02*
X259700D01*
X267468Y368701D02*
X271260D01*
X255709Y444084D02*
Y447638D01*
Y444084D02*
X256693Y443100D01*
Y439567D02*
Y443100D01*
X267507Y361220D02*
X271260D01*
X266700Y360413D02*
X267507Y361220D01*
X262992Y360413D02*
X266700D01*
D45*
X291969Y396457D02*
D03*
X300288Y304402D02*
D03*
X296900Y304300D02*
D03*
X295472Y315846D02*
D03*
X296949Y321063D02*
D03*
X312400Y374100D02*
D03*
X283500Y443300D02*
D03*
X285173Y446457D02*
D03*
X293100Y386200D02*
D03*
X301100Y388100D02*
D03*
X276772Y400000D02*
D03*
X286971Y441695D02*
D03*
X192913Y345843D02*
D03*
X293000Y349400D02*
D03*
X305600Y360900D02*
D03*
X233600Y359055D02*
D03*
X272500Y431600D02*
D03*
X281100Y374800D02*
D03*
X270675Y423000D02*
D03*
X273500Y280000D02*
D03*
X235000Y303400D02*
D03*
X241600Y297854D02*
D03*
X214900Y290200D02*
D03*
X292700Y377300D02*
D03*
X240900Y431700D02*
D03*
Y439800D02*
D03*
X317800Y430500D02*
D03*
X319000Y389000D02*
D03*
X316359Y356600D02*
D03*
X319100Y345900D02*
D03*
X315000Y337100D02*
D03*
X238603Y306900D02*
D03*
X278000Y332500D02*
D03*
X310600Y436700D02*
D03*
X317689Y444711D02*
D03*
X276000Y341200D02*
D03*
X275300Y321400D02*
D03*
X260205Y310597D02*
D03*
X242600Y314200D02*
D03*
X249145Y315145D02*
D03*
X255400Y314500D02*
D03*
X265000Y392700D02*
D03*
X290000Y404300D02*
D03*
X233200Y421400D02*
D03*
Y380400D02*
D03*
X269300Y374700D02*
D03*
X264291Y334391D02*
D03*
X227500Y280300D02*
D03*
X286900Y363100D02*
D03*
X246900Y277700D02*
D03*
X231600Y280400D02*
D03*
X251000Y274400D02*
D03*
Y294900D02*
D03*
X303500Y441300D02*
D03*
X306500Y386900D02*
D03*
X295500Y407300D02*
D03*
X239700Y312700D02*
D03*
X230700Y436400D02*
D03*
X248900Y420200D02*
D03*
X274928Y443109D02*
D03*
X264400Y431500D02*
D03*
X309752Y336900D02*
D03*
X320000Y410900D02*
D03*
X302100Y380900D02*
D03*
X277900Y326500D02*
D03*
X306279Y443100D02*
D03*
X268900Y441400D02*
D03*
X267200Y424900D02*
D03*
X292200Y443700D02*
D03*
X269700Y436600D02*
D03*
X298000Y441500D02*
D03*
X313500Y441732D02*
D03*
X299600Y377000D02*
D03*
X307200Y437900D02*
D03*
Y410900D02*
D03*
X230700Y294100D02*
D03*
X188700Y343200D02*
D03*
X222441Y291159D02*
D03*
X316400Y434213D02*
D03*
X319500Y424100D02*
D03*
X317500Y418100D02*
D03*
X311700Y288386D02*
D03*
X272930Y427970D02*
D03*
X282900Y315100D02*
D03*
X286100Y372900D02*
D03*
X257700Y382000D02*
D03*
X266100Y355200D02*
D03*
D46*
X296890Y366024D02*
D03*
Y398543D02*
D03*
X320315Y399961D02*
D03*
Y364606D02*
D03*
D47*
X291969Y368110D02*
D03*
D48*
X243504Y345276D02*
D03*
X236024D02*
D03*
X270866Y447638D02*
D03*
X278346D02*
D03*
X263189D02*
D03*
X255709D02*
D03*
X302953Y278740D02*
D03*
X310433D02*
D03*
X295276D02*
D03*
X287795D02*
D03*
X210039Y283071D02*
D03*
X202559D02*
D03*
X187205D02*
D03*
X194685D02*
D03*
D49*
X277008Y352953D02*
D03*
Y345472D02*
D03*
X268661Y349213D02*
D03*
D50*
X306693Y347441D02*
D03*
Y313189D02*
D03*
D51*
X261220Y413386D02*
D03*
Y422047D02*
D03*
X254528D02*
D03*
Y413386D02*
D03*
D52*
X256693Y429724D02*
D03*
Y439567D02*
D03*
D53*
X282677Y395669D02*
D03*
X274409D02*
D03*
D54*
X182618Y338780D02*
D03*
Y332087D02*
D03*
D55*
X201181Y321575D02*
D03*
D56*
X192205Y294921D02*
D03*
X210157D02*
D03*
D57*
X277047Y315551D02*
D03*
X227146D02*
D03*
D58*
X234055Y326378D02*
D03*
X235945D02*
D03*
X237835D02*
D03*
X239724D02*
D03*
X241614D02*
D03*
X243504D02*
D03*
X245394D02*
D03*
X247283D02*
D03*
X249173D02*
D03*
X251063D02*
D03*
X252953D02*
D03*
X254843D02*
D03*
X258622D02*
D03*
X260512D02*
D03*
X262402D02*
D03*
X264291D02*
D03*
X266181D02*
D03*
X268071D02*
D03*
X269961D02*
D03*
X256732D02*
D03*
M02*
