G04*
G04 #@! TF.GenerationSoftware,Altium Limited,Altium Designer,20.0.2 (26)*
G04*
G04 Layer_Color=16711935*
%FSLAX25Y25*%
%MOIN*%
G70*
G01*
G75*
%ADD10C,0.00787*%
%ADD11C,0.00500*%
%ADD44C,0.01181*%
%ADD71C,0.00400*%
D10*
X282087Y352953D02*
G03*
X282087Y352953I-394J0D01*
G01*
X307087Y307874D02*
G03*
X307087Y307874I-394J0D01*
G01*
X249606Y413386D02*
G03*
X249606Y413386I-394J0D01*
G01*
X275590Y435236D02*
G03*
X275590Y435236I-394J0D01*
G01*
X232795Y296339D02*
G03*
X232795Y296339I-394J0D01*
G01*
X182677Y293307D02*
G03*
X182677Y293307I-394J0D01*
G01*
Y326575D02*
G03*
X182677Y326575I-394J0D01*
G01*
X214875Y294911D02*
G03*
X214875Y294911I-394J0D01*
G01*
X286457Y371260D02*
G03*
X286457Y371260I-394J0D01*
G01*
X183465Y353228D02*
Y447717D01*
Y353228D02*
X246457D01*
Y447717D01*
X183465D02*
X246457D01*
D11*
X289961Y445354D02*
Y450709D01*
X298228Y445354D02*
Y450709D01*
X289961Y445354D02*
X298228D01*
X289961Y450709D02*
X298228D01*
X196535Y334449D02*
Y342717D01*
X201890Y334449D02*
Y342717D01*
X196535Y334449D02*
X201890D01*
X196535Y342717D02*
X201890D01*
X209764Y334232D02*
Y342500D01*
X204409Y334232D02*
Y342500D01*
X209764D01*
X204409Y334232D02*
X209764D01*
X220157Y334055D02*
Y342323D01*
X225512Y334055D02*
Y342323D01*
X220157Y334055D02*
X225512D01*
X220157Y342323D02*
X225512D01*
X217638Y334232D02*
Y342500D01*
X212283Y334232D02*
Y342500D01*
X217638D01*
X212283Y334232D02*
X217638D01*
X269370Y378150D02*
Y386417D01*
X274724Y378150D02*
Y386417D01*
X269370Y378150D02*
X274724D01*
X269370Y386417D02*
X274724D01*
X282598Y378150D02*
Y386417D01*
X277244Y378150D02*
Y386417D01*
X282598D01*
X277244Y378150D02*
X282598D01*
X261496D02*
Y386417D01*
X266850Y378150D02*
Y386417D01*
X261496Y378150D02*
X266850D01*
X261496Y386417D02*
X266850D01*
X258976Y378150D02*
Y386417D01*
X253622Y378150D02*
Y386417D01*
X258976D01*
X253622Y378150D02*
X258976D01*
X303740Y450709D02*
X312008D01*
X303740Y445354D02*
X312008D01*
Y450709D01*
X303740Y445354D02*
Y450709D01*
X319370Y406496D02*
Y414764D01*
X324724Y406496D02*
Y414764D01*
X319370D02*
X324724D01*
X319370Y406496D02*
X324724D01*
Y420276D02*
Y428543D01*
X319370Y420276D02*
Y428543D01*
Y420276D02*
X324724D01*
X319370Y428543D02*
X324724D01*
X253169Y347953D02*
X261437D01*
X253169Y342598D02*
X261437D01*
Y347953D01*
X253169Y342598D02*
Y347953D01*
Y355827D02*
X261437D01*
X253169Y350472D02*
X261437D01*
Y355827D01*
X253169Y350472D02*
Y355827D01*
X260315Y368307D02*
X265669D01*
X260315Y360039D02*
X265669D01*
X260315D02*
Y368307D01*
X265669Y360039D02*
Y368307D01*
X257795Y360039D02*
Y368307D01*
X252441Y360039D02*
Y368307D01*
Y360039D02*
X257795D01*
X252441Y368307D02*
X257795D01*
X270276Y354921D02*
X275394D01*
X270276Y343504D02*
Y354921D01*
Y343504D02*
X275394D01*
Y354921D01*
X324724Y433839D02*
Y442106D01*
X319370Y433839D02*
Y442106D01*
Y433839D02*
X324724D01*
X319370Y442106D02*
X324724D01*
X298012Y353622D02*
X306280D01*
X298012Y358976D02*
X306280D01*
Y353622D02*
Y358976D01*
X298012Y353622D02*
Y358976D01*
Y353622D02*
X306280D01*
X298012Y358976D02*
X306280D01*
X298012Y353622D02*
Y358976D01*
X306280Y353622D02*
Y358976D01*
X288976Y312598D02*
X324409D01*
X288976D02*
Y348032D01*
X324409D01*
Y312598D02*
Y348032D01*
X252953Y424016D02*
X262795D01*
X252953Y411417D02*
Y424016D01*
X262795Y411417D02*
Y424016D01*
X252953Y411417D02*
X262795D01*
X259646Y428346D02*
Y440945D01*
X253740Y428346D02*
Y440945D01*
Y428346D02*
X259646D01*
X253740Y440945D02*
X259646D01*
X279134Y410630D02*
X306693D01*
X279134Y438189D02*
X306693D01*
Y410630D02*
Y438189D01*
X279134Y410630D02*
Y438189D01*
X275197Y393110D02*
Y398228D01*
X281890Y393110D02*
Y398228D01*
X267402Y276260D02*
Y284528D01*
X272756Y276260D02*
Y284528D01*
X267402Y276260D02*
X272756D01*
X267402Y284528D02*
X272756D01*
Y289961D02*
Y298228D01*
X267402Y289961D02*
Y298228D01*
X272756D01*
X267402Y289961D02*
X272756D01*
X228031Y298228D02*
X233386D01*
X228031Y289961D02*
X233386D01*
Y298228D01*
X228031Y289961D02*
Y298228D01*
X242028Y296516D02*
X257776D01*
X242028Y276437D02*
X257776D01*
X242028D02*
Y296516D01*
X257776Y276437D02*
Y296516D01*
X233386Y276260D02*
Y284528D01*
X228031Y276260D02*
Y284528D01*
X233386D01*
X228031Y276260D02*
X233386D01*
X184941Y297638D02*
Y305906D01*
X179626Y297638D02*
Y305906D01*
X184941D01*
X179626Y297638D02*
X184941D01*
X179626Y313976D02*
Y322244D01*
X184941Y313976D02*
Y322244D01*
X179626Y313976D02*
X184941D01*
X179626Y322244D02*
X184941D01*
X188189Y328090D02*
X214173D01*
X188189Y304075D02*
Y328090D01*
Y304075D02*
X214173D01*
Y328090D01*
X294173Y300197D02*
Y308465D01*
X299528Y300197D02*
Y308465D01*
X294173Y300197D02*
X299528D01*
X294173Y308465D02*
X299528D01*
X224488Y301772D02*
Y323819D01*
X279016D01*
Y301772D02*
Y323819D01*
X329724Y364173D02*
Y400394D01*
X288386D02*
X329724D01*
X288386Y364173D02*
Y400394D01*
Y364173D02*
X325236D01*
X329724D01*
D44*
X182874Y327433D02*
G03*
X182874Y327433I-197J0D01*
G01*
D71*
X238362Y347874D02*
X241264D01*
X238264Y342677D02*
X241264D01*
X277323Y363559D02*
Y366461D01*
X282520Y363461D02*
Y366461D01*
X268661Y363461D02*
Y366461D01*
X273858Y363461D02*
Y366362D01*
X261575Y399780D02*
Y402681D01*
X266772Y399681D02*
Y402681D01*
X252913Y399976D02*
Y402878D01*
X258110Y399878D02*
Y402878D01*
X273106Y445039D02*
X276106D01*
X273205Y450236D02*
X276106D01*
X257949D02*
X260949D01*
X257949Y445039D02*
X260850D01*
X305193Y276142D02*
X308193D01*
X305291Y281339D02*
X308193D01*
X290035D02*
X293035D01*
X290035Y276142D02*
X292937D01*
X302520Y290626D02*
Y293626D01*
X307717Y290626D02*
Y293528D01*
X293858Y290429D02*
Y293429D01*
X299055Y290429D02*
Y293331D01*
X285197Y290429D02*
Y293429D01*
X290394Y290429D02*
Y293331D01*
X204799Y285669D02*
X207799D01*
X204799Y280473D02*
X207701D01*
X189445D02*
X192445D01*
X189543Y285669D02*
X192445D01*
X275748Y279996D02*
Y282996D01*
X280945Y280094D02*
Y282996D01*
X219843Y279602D02*
Y282602D01*
X225039Y279701D02*
Y282602D01*
X302520Y303618D02*
Y306618D01*
X307717Y303717D02*
Y306618D01*
M02*
