G04*
G04 #@! TF.GenerationSoftware,Altium Limited,Altium Designer,20.0.2 (26)*
G04*
G04 Layer_Color=8421504*
%FSLAX25Y25*%
%MOIN*%
G70*
G01*
G75*
%ADD13R,0.05433X0.03622*%
%ADD14R,0.03622X0.05433*%
G04:AMPARAMS|DCode=15|XSize=34.25mil|YSize=10.63mil|CornerRadius=1.33mil|HoleSize=0mil|Usage=FLASHONLY|Rotation=90.000|XOffset=0mil|YOffset=0mil|HoleType=Round|Shape=RoundedRectangle|*
%AMROUNDEDRECTD15*
21,1,0.03425,0.00797,0,0,90.0*
21,1,0.03160,0.01063,0,0,90.0*
1,1,0.00266,0.00399,0.01580*
1,1,0.00266,0.00399,-0.01580*
1,1,0.00266,-0.00399,-0.01580*
1,1,0.00266,-0.00399,0.01580*
%
%ADD15ROUNDEDRECTD15*%
G04:AMPARAMS|DCode=16|XSize=34.25mil|YSize=10.63mil|CornerRadius=1.33mil|HoleSize=0mil|Usage=FLASHONLY|Rotation=0.000|XOffset=0mil|YOffset=0mil|HoleType=Round|Shape=RoundedRectangle|*
%AMROUNDEDRECTD16*
21,1,0.03425,0.00797,0,0,0.0*
21,1,0.03160,0.01063,0,0,0.0*
1,1,0.00266,0.01580,-0.00399*
1,1,0.00266,-0.01580,-0.00399*
1,1,0.00266,-0.01580,0.00399*
1,1,0.00266,0.01580,0.00399*
%
%ADD16ROUNDEDRECTD16*%
%ADD17R,0.05906X0.05118*%
G04:AMPARAMS|DCode=18|XSize=77.56mil|YSize=23.62mil|CornerRadius=2.95mil|HoleSize=0mil|Usage=FLASHONLY|Rotation=0.000|XOffset=0mil|YOffset=0mil|HoleType=Round|Shape=RoundedRectangle|*
%AMROUNDEDRECTD18*
21,1,0.07756,0.01772,0,0,0.0*
21,1,0.07165,0.02362,0,0,0.0*
1,1,0.00591,0.03583,-0.00886*
1,1,0.00591,-0.03583,-0.00886*
1,1,0.00591,-0.03583,0.00886*
1,1,0.00591,0.03583,0.00886*
%
%ADD18ROUNDEDRECTD18*%
%ADD19R,0.04724X0.04724*%
%ADD20R,0.02756X0.01181*%
%ADD21R,0.03937X0.05709*%
%ADD22R,0.05118X0.03543*%
%ADD23R,0.04724X0.07874*%
%ADD24R,0.07874X0.04724*%
G36*
X301929Y426417D02*
X294921D01*
Y433425D01*
X301929D01*
Y426417D01*
D02*
G37*
G36*
X290905D02*
X283898D01*
Y433425D01*
X290905D01*
Y426417D01*
D02*
G37*
G36*
X301929Y415394D02*
X294921D01*
Y422402D01*
X301929D01*
Y415394D01*
D02*
G37*
G36*
X290905D02*
X283898D01*
Y422402D01*
X290905D01*
Y415394D01*
D02*
G37*
G36*
X252441Y283248D02*
X247362D01*
Y289705D01*
X252441D01*
Y283248D01*
D02*
G37*
D13*
X199213Y342343D02*
D03*
Y334823D02*
D03*
X207087Y334606D02*
D03*
Y342126D02*
D03*
X222835Y341949D02*
D03*
Y334429D02*
D03*
X214961Y334606D02*
D03*
Y342126D02*
D03*
X272047Y386043D02*
D03*
Y378524D02*
D03*
X279921D02*
D03*
Y386043D02*
D03*
X264173D02*
D03*
Y378524D02*
D03*
X256299D02*
D03*
Y386043D02*
D03*
X270079Y284154D02*
D03*
Y276634D02*
D03*
Y290335D02*
D03*
Y297854D02*
D03*
X230709Y290335D02*
D03*
Y297854D02*
D03*
Y276634D02*
D03*
Y284154D02*
D03*
X296850Y308091D02*
D03*
Y300571D02*
D03*
D14*
X298386Y356299D02*
D03*
X305906D02*
D03*
D15*
X282087Y410906D02*
D03*
X284055D02*
D03*
X286024D02*
D03*
X287992D02*
D03*
X289961D02*
D03*
X291929D02*
D03*
X293898D02*
D03*
X295866D02*
D03*
X297835D02*
D03*
X299803D02*
D03*
X301772D02*
D03*
X303740D02*
D03*
Y437913D02*
D03*
X301772D02*
D03*
X299803D02*
D03*
X297835D02*
D03*
X295866D02*
D03*
X293898D02*
D03*
X291929D02*
D03*
X289961D02*
D03*
X287992D02*
D03*
X286024D02*
D03*
X284055D02*
D03*
X282087D02*
D03*
D16*
X279413Y435236D02*
D03*
X279409Y433268D02*
D03*
Y431299D02*
D03*
Y429331D02*
D03*
Y427362D02*
D03*
Y425394D02*
D03*
Y423425D02*
D03*
Y421457D02*
D03*
Y419488D02*
D03*
Y417520D02*
D03*
Y415551D02*
D03*
Y413583D02*
D03*
X306417D02*
D03*
Y415551D02*
D03*
Y417520D02*
D03*
Y419488D02*
D03*
Y421457D02*
D03*
Y423425D02*
D03*
Y425394D02*
D03*
Y427362D02*
D03*
Y429331D02*
D03*
Y431299D02*
D03*
Y433268D02*
D03*
Y435236D02*
D03*
D17*
X278346Y277756D02*
D03*
Y285236D02*
D03*
X222441Y277362D02*
D03*
Y284843D02*
D03*
X305118Y301378D02*
D03*
Y308858D02*
D03*
D18*
X240157Y293976D02*
D03*
Y288976D02*
D03*
Y283976D02*
D03*
Y278976D02*
D03*
X259646D02*
D03*
Y283976D02*
D03*
Y288976D02*
D03*
Y293976D02*
D03*
D19*
X182283Y305906D02*
D03*
Y297638D02*
D03*
Y313976D02*
D03*
Y322244D02*
D03*
D20*
X289370Y393110D02*
D03*
Y391142D02*
D03*
Y389173D02*
D03*
Y387205D02*
D03*
Y385236D02*
D03*
Y383268D02*
D03*
Y381299D02*
D03*
Y379331D02*
D03*
Y377362D02*
D03*
Y375394D02*
D03*
Y373425D02*
D03*
X296063Y370473D02*
D03*
Y372441D02*
D03*
Y374410D02*
D03*
Y376378D02*
D03*
Y378347D02*
D03*
Y380315D02*
D03*
Y382284D02*
D03*
Y384252D02*
D03*
Y386221D02*
D03*
Y388189D02*
D03*
Y390158D02*
D03*
Y392126D02*
D03*
X289370Y371457D02*
D03*
D21*
X321260Y314252D02*
D03*
Y287677D02*
D03*
Y353346D02*
D03*
Y326772D02*
D03*
D22*
X314764Y292717D02*
D03*
Y309252D02*
D03*
Y331811D02*
D03*
Y348346D02*
D03*
D23*
X195276Y353228D02*
D03*
X203150D02*
D03*
X211024D02*
D03*
X218898D02*
D03*
X226772D02*
D03*
X234646D02*
D03*
D24*
X183465Y359055D02*
D03*
Y366929D02*
D03*
Y374803D02*
D03*
Y382677D02*
D03*
Y390551D02*
D03*
Y406299D02*
D03*
Y398425D02*
D03*
Y414173D02*
D03*
X246457D02*
D03*
Y406299D02*
D03*
Y398425D02*
D03*
Y390551D02*
D03*
Y382677D02*
D03*
Y374803D02*
D03*
Y366929D02*
D03*
Y359055D02*
D03*
M02*
