G04*
G04 #@! TF.GenerationSoftware,Altium Limited,Altium Designer,20.0.2 (26)*
G04*
G04 Layer_Color=128*
%FSLAX25Y25*%
%MOIN*%
G70*
G01*
G75*
%ADD13R,0.05433X0.03622*%
%ADD14R,0.03622X0.05433*%
%ADD17R,0.05906X0.05118*%
%ADD48R,0.05118X0.05906*%
G04:AMPARAMS|DCode=49|XSize=48.42mil|YSize=23.62mil|CornerRadius=5.91mil|HoleSize=0mil|Usage=FLASHONLY|Rotation=180.000|XOffset=0mil|YOffset=0mil|HoleType=Round|Shape=RoundedRectangle|*
%AMROUNDEDRECTD49*
21,1,0.04842,0.01181,0,0,180.0*
21,1,0.03661,0.02362,0,0,180.0*
1,1,0.01181,-0.01831,0.00591*
1,1,0.01181,0.01831,0.00591*
1,1,0.01181,0.01831,-0.00591*
1,1,0.01181,-0.01831,-0.00591*
%
%ADD49ROUNDEDRECTD49*%
%ADD50R,0.13386X0.05118*%
%ADD51R,0.04724X0.05512*%
%ADD52R,0.07480X0.04331*%
%ADD53R,0.02362X0.01968*%
%ADD54R,0.03937X0.04724*%
%ADD56R,0.03819X0.09606*%
%ADD57R,0.07874X0.07087*%
%ADD58R,0.01181X0.11811*%
G36*
X210453Y326929D02*
X202854D01*
Y332677D01*
X210453D01*
Y326929D01*
D02*
G37*
G36*
X199508D02*
X191909D01*
Y332677D01*
X199508D01*
Y326929D01*
D02*
G37*
G36*
X210453Y318937D02*
X202854D01*
Y324685D01*
X210453D01*
Y318937D01*
D02*
G37*
G36*
X199508D02*
X191909D01*
Y324685D01*
X199508D01*
Y318937D01*
D02*
G37*
G36*
X210453Y310945D02*
X202854D01*
Y316693D01*
X210453D01*
Y310945D01*
D02*
G37*
G36*
X199508D02*
X191909D01*
Y316693D01*
X199508D01*
Y310945D01*
D02*
G37*
D13*
X322047Y406870D02*
D03*
Y414390D02*
D03*
Y428169D02*
D03*
Y420650D02*
D03*
X262992Y360413D02*
D03*
Y367933D02*
D03*
X255118D02*
D03*
Y360413D02*
D03*
X322047Y441732D02*
D03*
Y434213D02*
D03*
D14*
X297854Y448032D02*
D03*
X290335D02*
D03*
X304114D02*
D03*
X311634D02*
D03*
X253543Y345276D02*
D03*
X261063D02*
D03*
X253543Y353150D02*
D03*
X261063D02*
D03*
X305906Y356299D02*
D03*
X298386D02*
D03*
D17*
X279921Y368701D02*
D03*
Y361220D02*
D03*
X271260Y368701D02*
D03*
Y361220D02*
D03*
X264173Y404921D02*
D03*
Y397441D02*
D03*
X255512Y405118D02*
D03*
Y397638D02*
D03*
X305118Y295866D02*
D03*
Y288386D02*
D03*
X296457Y295669D02*
D03*
Y288189D02*
D03*
X287795Y295669D02*
D03*
Y288189D02*
D03*
D48*
X243504Y345276D02*
D03*
X236024D02*
D03*
X270866Y447638D02*
D03*
X278346D02*
D03*
X263189D02*
D03*
X255709D02*
D03*
X302953Y278740D02*
D03*
X310433D02*
D03*
X295276D02*
D03*
X287795D02*
D03*
X210039Y283071D02*
D03*
X202559D02*
D03*
X187205D02*
D03*
X194685D02*
D03*
D49*
X277008Y352953D02*
D03*
Y345472D02*
D03*
X268661Y349213D02*
D03*
D50*
X306693Y347441D02*
D03*
Y313189D02*
D03*
D51*
X261220Y413386D02*
D03*
Y422047D02*
D03*
X254528D02*
D03*
Y413386D02*
D03*
D52*
X256693Y429724D02*
D03*
Y439567D02*
D03*
D53*
X282677Y395669D02*
D03*
X274409D02*
D03*
D54*
X182618Y338780D02*
D03*
Y332087D02*
D03*
D56*
X192205Y294921D02*
D03*
X210157D02*
D03*
D57*
X277047Y315551D02*
D03*
X227146D02*
D03*
D58*
X234055Y326378D02*
D03*
X235945D02*
D03*
X237835D02*
D03*
X239724D02*
D03*
X241614D02*
D03*
X243504D02*
D03*
X245394D02*
D03*
X247283D02*
D03*
X249173D02*
D03*
X251063D02*
D03*
X252953D02*
D03*
X254843D02*
D03*
X258622D02*
D03*
X260512D02*
D03*
X262402D02*
D03*
X264291D02*
D03*
X266181D02*
D03*
X268071D02*
D03*
X269961D02*
D03*
X256732D02*
D03*
M02*
