M48
;Layer_Color=9474304
;FILE_FORMAT=2:5
INCH,LZ
;TYPE=PLATED
T1F00S00C0.01378
;TYPE=NON_PLATED
T3F00S00C0.02559
T4F00S00C0.02657
%
T01
X02149Y02902
X0222441Y0291159
X02307Y02941
X0235Y03034
X0238603Y03069
X02416Y0297854
X0251Y02949
Y02744
X02469Y02777
X02316Y02804
X02275Y02803
X02735Y028
X0260205Y0310597
X02969Y03043
X0300288Y0304402
X03117Y0288386
X0295472Y0315846
X0296949Y0321063
X02829Y03151
X02753Y03214
X02779Y03265
X0278Y03325
X0276Y03412
X0264291Y0334391
X02661Y03552
X02693Y03747
X02811Y03748
X02861Y03729
X02869Y03631
X0293Y03494
X03056Y03609
X03124Y03741
X02996Y0377
X03021Y03809
X03011Y03881
X03065Y03869
X02931Y03862
X02927Y03773
X029Y04043
X02955Y04073
X03072Y04109
Y04379
X03106Y04367
X0306279Y04431
X03035Y04413
X0298Y04415
X02922Y04437
X0286971Y0441695
X02835Y04433
X0285173Y0446457
X0274928Y0443109
X02689Y04414
X02697Y04366
X02725Y04316
X027293Y042797
X0270675Y0423
X02672Y04249
X02644Y04315
X02409Y04317
Y04398
X02307Y04364
X02332Y04214
X02489Y04202
X0265Y03927
X02577Y0382
X02332Y03804
X02336Y0359055
X02397Y03127
X02426Y03142
X0249145Y0315145
X02554Y03145
X0309752Y03369
X0276772Y04
X0192913Y0345843
X01887Y03432
X0315Y03371
X03191Y03459
X0316359Y03566
X0319Y0389
X032Y04109
X03175Y04181
X03195Y04241
X03178Y04305
X03164Y0434213
X03135Y0441732
X0317689Y0444711
T03
X0291969Y0396457
T04
X0291969Y036811
M30
